G04 DipTrace 3.3.0.1*
G04 BottomSilk.gbr*
%MOMM*%
G04 #@! TF.FileFunction,Legend,Bot*
G04 #@! TF.Part,Single*
%ADD10C,0.25*%
%ADD12C,0.0762*%
%ADD56C,0.19608*%
%FSLAX35Y35*%
G04*
G71*
G90*
G75*
G01*
G04 BotSilk*
%LPD*%
X1697112Y4050212D2*
D10*
X1442907D1*
Y1510111D1*
X1697112D1*
Y4050212D1*
X6267112D2*
X6012907D1*
Y1510111D1*
X6267112D1*
Y4050212D1*
X1536907Y4319208D2*
D12*
X1555957D1*
X1536907Y4315398D2*
X1556117D1*
X1536907Y4311588D2*
X1556754D1*
X1536907Y4307778D2*
X1557944D1*
X1536907Y4303968D2*
X1561086D1*
X1536907Y4300158D2*
X1565839D1*
X1536907Y4296348D2*
X1573017D1*
X1536907Y4292538D2*
X1581694D1*
X1536907Y4288728D2*
X1589154D1*
X1536907Y4284918D2*
X1594670D1*
X1536907Y4281108D2*
X1596364D1*
X1536907Y4277298D2*
X1597248D1*
X1536907Y4273488D2*
X1597644D1*
X1536907Y4269678D2*
X1559767D1*
X1536907Y4265868D2*
X1559767D1*
X1536907Y4262058D2*
X1559767D1*
X1536907Y4258248D2*
X1559767D1*
X1536907Y4254438D2*
X1559767D1*
X1536907Y4250628D2*
X1559767D1*
X1536907Y4246818D2*
X1559767D1*
X1536907Y4243008D2*
X1559767D1*
X1536907Y4239198D2*
X1559767D1*
X1536907Y4235388D2*
X1559767D1*
X1536907Y4231578D2*
X1559767D1*
X1536907Y4227768D2*
X1559767D1*
X1536907Y4223958D2*
X1559767D1*
X1536907Y4220148D2*
X1559767D1*
X1536907Y4216338D2*
X1559767D1*
X1536907Y4212528D2*
X1559767D1*
X1536907Y4208718D2*
X1559767D1*
X1536907Y4204908D2*
X1559767D1*
X1536907Y4201098D2*
X1559767D1*
X1536907Y4197288D2*
X1559767D1*
X1536907Y4193478D2*
X1559767D1*
X1536907Y4189668D2*
X1559767D1*
X1536907Y4185858D2*
X1559767D1*
X1536907Y4182048D2*
X1559767D1*
X1536907Y4178238D2*
X1559767D1*
X1536907Y4174428D2*
X1559767D1*
X1536907Y4170618D2*
X1559767D1*
X1536907Y4166808D2*
X1559767D1*
X1536907Y4162998D2*
X1559767D1*
X1536907Y4159188D2*
X1559767D1*
X1536907Y4155378D2*
X1559767D1*
X1536907Y4151568D2*
X1559767D1*
X1536907Y4147758D2*
X1559767D1*
X1536907Y4143948D2*
X1559767D1*
X1536907Y4140138D2*
X1559767D1*
X1536907Y4136328D2*
X1559767D1*
X1536907Y4132518D2*
X1559767D1*
X1498807Y4128708D2*
X1597867D1*
X1498807Y4124898D2*
X1597867D1*
X1498807Y4121088D2*
X1597867D1*
X1498807Y4117278D2*
X1597867D1*
X1498807Y4113468D2*
X1597867D1*
X1498807Y4109658D2*
X1597867D1*
X1470300Y1466048D2*
X1500780D1*
X1461670Y1462238D2*
X1509410D1*
X1630320D2*
X1649370D1*
X1454538Y1458428D2*
X1516542D1*
X1630320D2*
X1649530D1*
X1448913Y1454618D2*
X1522182D1*
X1630320D2*
X1650167D1*
X1444372Y1450808D2*
X1526842D1*
X1630320D2*
X1651357D1*
X1440696Y1446998D2*
X1530885D1*
X1630320D2*
X1654499D1*
X1437788Y1443188D2*
X1474415D1*
X1500016D2*
X1534339D1*
X1630320D2*
X1659252D1*
X1435402Y1439378D2*
X1467935D1*
X1505921D2*
X1537141D1*
X1630320D2*
X1666430D1*
X1433298Y1435568D2*
X1462910D1*
X1510506D2*
X1539373D1*
X1630320D2*
X1675107D1*
X1431432Y1431758D2*
X1459292D1*
X1513874D2*
X1541112D1*
X1630320D2*
X1682568D1*
X1429859Y1427948D2*
X1456586D1*
X1516355D2*
X1542533D1*
X1630320D2*
X1688084D1*
X1428506Y1424138D2*
X1454457D1*
X1518194D2*
X1543906D1*
X1630320D2*
X1689778D1*
X1427159Y1420328D2*
X1452779D1*
X1519653D2*
X1545100D1*
X1630320D2*
X1690661D1*
X1425990Y1416518D2*
X1451388D1*
X1521039D2*
X1545980D1*
X1630320D2*
X1691058D1*
X1425233Y1412708D2*
X1450026D1*
X1522223D2*
X1546849D1*
X1630320D2*
X1653180D1*
X1424716Y1408898D2*
X1448852D1*
X1522970D2*
X1547934D1*
X1630320D2*
X1653180D1*
X1424058Y1405088D2*
X1448108D1*
X1523369D2*
X1548982D1*
X1630320D2*
X1653180D1*
X1423075Y1401278D2*
X1447725D1*
X1523676D2*
X1549673D1*
X1630320D2*
X1653180D1*
X1422071Y1397468D2*
X1447552D1*
X1524232D2*
X1550036D1*
X1630320D2*
X1653180D1*
X1421397Y1393658D2*
X1447482D1*
X1525172D2*
X1550201D1*
X1630320D2*
X1653180D1*
X1421040Y1389848D2*
X1447455D1*
X1526159D2*
X1550284D1*
X1630320D2*
X1653180D1*
X1420877Y1386038D2*
X1447445D1*
X1526827D2*
X1550444D1*
X1630320D2*
X1653180D1*
X1420810Y1382228D2*
X1447427D1*
X1527181D2*
X1550939D1*
X1630320D2*
X1653180D1*
X1420784Y1378418D2*
X1447292D1*
X1527343D2*
X1551855D1*
X1630320D2*
X1653180D1*
X1420775Y1374608D2*
X1446806D1*
X1527410D2*
X1552833D1*
X1630320D2*
X1653180D1*
X1420772Y1370798D2*
X1445893D1*
X1527436D2*
X1553498D1*
X1630320D2*
X1653180D1*
X1420771Y1366988D2*
X1444916D1*
X1527445D2*
X1553851D1*
X1630320D2*
X1653180D1*
X1420770Y1363178D2*
X1444252D1*
X1527448D2*
X1554013D1*
X1630320D2*
X1653180D1*
X1420770Y1359368D2*
X1443913D1*
X1527449D2*
X1554080D1*
X1630320D2*
X1653180D1*
X1420770Y1355558D2*
X1443886D1*
X1527450D2*
X1554106D1*
X1630320D2*
X1653180D1*
X1420770Y1351748D2*
X1444304D1*
X1527450D2*
X1554100D1*
X1630320D2*
X1653180D1*
X1420770Y1347938D2*
X1445191D1*
X1527450D2*
X1553970D1*
X1630320D2*
X1653180D1*
X1420770Y1344128D2*
X1446159D1*
X1527450D2*
X1553485D1*
X1630320D2*
X1653180D1*
X1420770Y1340318D2*
X1446820D1*
X1527450D2*
X1552573D1*
X1630320D2*
X1653180D1*
X1420770Y1336508D2*
X1447172D1*
X1527450D2*
X1551596D1*
X1630320D2*
X1653180D1*
X1420770Y1332698D2*
X1447333D1*
X1527435D2*
X1550932D1*
X1630320D2*
X1653180D1*
X1420785Y1328888D2*
X1447400D1*
X1527301D2*
X1550578D1*
X1630320D2*
X1653180D1*
X1420919Y1325078D2*
X1447426D1*
X1526816D2*
X1550417D1*
X1630320D2*
X1653180D1*
X1421404Y1321268D2*
X1447435D1*
X1525903D2*
X1550335D1*
X1630320D2*
X1653180D1*
X1422317Y1317458D2*
X1447453D1*
X1524926D2*
X1550175D1*
X1630320D2*
X1653180D1*
X1423294Y1313648D2*
X1447588D1*
X1524247D2*
X1549681D1*
X1630320D2*
X1653180D1*
X1423973Y1309838D2*
X1448074D1*
X1523760D2*
X1548765D1*
X1630320D2*
X1653180D1*
X1424460Y1306028D2*
X1449002D1*
X1523112D2*
X1547772D1*
X1630320D2*
X1653180D1*
X1425108Y1302218D2*
X1450113D1*
X1522118D2*
X1546973D1*
X1630320D2*
X1653180D1*
X1426102Y1298408D2*
X1451277D1*
X1520982D2*
X1546134D1*
X1630320D2*
X1653180D1*
X1427238Y1294598D2*
X1452677D1*
X1519807D2*
X1545045D1*
X1630320D2*
X1653180D1*
X1428413Y1290788D2*
X1454331D1*
X1518390D2*
X1543867D1*
X1630320D2*
X1653180D1*
X1429816Y1286978D2*
X1456273D1*
X1516601D2*
X1542677D1*
X1630320D2*
X1653180D1*
X1431456Y1283168D2*
X1458986D1*
X1514084D2*
X1541253D1*
X1630320D2*
X1653180D1*
X1433249Y1279358D2*
X1462626D1*
X1510733D2*
X1539477D1*
X1630320D2*
X1653180D1*
X1435239Y1275548D2*
X1472493D1*
X1501517D2*
X1537197D1*
X1630320D2*
X1653180D1*
X1437621Y1271738D2*
X1487038D1*
X1487463D2*
X1534294D1*
X1592220D2*
X1691280D1*
X1440583Y1267928D2*
X1530920D1*
X1592220D2*
X1691280D1*
X1444124Y1264118D2*
X1527145D1*
X1592220D2*
X1691280D1*
X1448521Y1260308D2*
X1522636D1*
X1592220D2*
X1691280D1*
X1454375Y1256498D2*
X1516734D1*
X1592220D2*
X1691280D1*
X1461894Y1252688D2*
X1509196D1*
X1592220D2*
X1691280D1*
X1470300Y1248878D2*
X1500780D1*
X6106907Y4319208D2*
X6125957D1*
X6106907Y4315398D2*
X6126117D1*
X6106907Y4311588D2*
X6126754D1*
X6106907Y4307778D2*
X6127944D1*
X6106907Y4303968D2*
X6131086D1*
X6106907Y4300158D2*
X6135839D1*
X6106907Y4296348D2*
X6143017D1*
X6106907Y4292538D2*
X6151694D1*
X6106907Y4288728D2*
X6159154D1*
X6106907Y4284918D2*
X6164670D1*
X6106907Y4281108D2*
X6166364D1*
X6106907Y4277298D2*
X6167248D1*
X6106907Y4273488D2*
X6167644D1*
X6106907Y4269678D2*
X6129767D1*
X6106907Y4265868D2*
X6129767D1*
X6106907Y4262058D2*
X6129767D1*
X6106907Y4258248D2*
X6129767D1*
X6106907Y4254438D2*
X6129767D1*
X6106907Y4250628D2*
X6129767D1*
X6106907Y4246818D2*
X6129767D1*
X6106907Y4243008D2*
X6129767D1*
X6106907Y4239198D2*
X6129767D1*
X6106907Y4235388D2*
X6129767D1*
X6106907Y4231578D2*
X6129767D1*
X6106907Y4227768D2*
X6129767D1*
X6106907Y4223958D2*
X6129767D1*
X6106907Y4220148D2*
X6129767D1*
X6106907Y4216338D2*
X6129767D1*
X6106907Y4212528D2*
X6129767D1*
X6106907Y4208718D2*
X6129767D1*
X6106907Y4204908D2*
X6129767D1*
X6106907Y4201098D2*
X6129767D1*
X6106907Y4197288D2*
X6129767D1*
X6106907Y4193478D2*
X6129767D1*
X6106907Y4189668D2*
X6129767D1*
X6106907Y4185858D2*
X6129767D1*
X6106907Y4182048D2*
X6129767D1*
X6106907Y4178238D2*
X6129767D1*
X6106907Y4174428D2*
X6129767D1*
X6106907Y4170618D2*
X6129767D1*
X6106907Y4166808D2*
X6129767D1*
X6106907Y4162998D2*
X6129767D1*
X6106907Y4159188D2*
X6129767D1*
X6106907Y4155378D2*
X6129767D1*
X6106907Y4151568D2*
X6129767D1*
X6106907Y4147758D2*
X6129767D1*
X6106907Y4143948D2*
X6129767D1*
X6106907Y4140138D2*
X6129767D1*
X6106907Y4136328D2*
X6129767D1*
X6106907Y4132518D2*
X6129767D1*
X6068807Y4128708D2*
X6167867D1*
X6068807Y4124898D2*
X6167867D1*
X6068807Y4121088D2*
X6167867D1*
X6068807Y4117278D2*
X6167867D1*
X6068807Y4113468D2*
X6167867D1*
X6068807Y4109658D2*
X6167867D1*
X6040300Y1466048D2*
X6070780D1*
X6031670Y1462238D2*
X6079410D1*
X6200320D2*
X6219370D1*
X6024538Y1458428D2*
X6086542D1*
X6200320D2*
X6219530D1*
X6018913Y1454618D2*
X6092182D1*
X6200320D2*
X6220167D1*
X6014372Y1450808D2*
X6096842D1*
X6200320D2*
X6221357D1*
X6010696Y1446998D2*
X6100885D1*
X6200320D2*
X6224499D1*
X6007788Y1443188D2*
X6044415D1*
X6070016D2*
X6104339D1*
X6200320D2*
X6229252D1*
X6005402Y1439378D2*
X6037935D1*
X6075921D2*
X6107141D1*
X6200320D2*
X6236430D1*
X6003298Y1435568D2*
X6032910D1*
X6080506D2*
X6109373D1*
X6200320D2*
X6245107D1*
X6001432Y1431758D2*
X6029292D1*
X6083874D2*
X6111112D1*
X6200320D2*
X6252568D1*
X5999859Y1427948D2*
X6026586D1*
X6086355D2*
X6112533D1*
X6200320D2*
X6258084D1*
X5998506Y1424138D2*
X6024457D1*
X6088194D2*
X6113906D1*
X6200320D2*
X6259778D1*
X5997159Y1420328D2*
X6022779D1*
X6089653D2*
X6115100D1*
X6200320D2*
X6260661D1*
X5995990Y1416518D2*
X6021388D1*
X6091039D2*
X6115980D1*
X6200320D2*
X6261058D1*
X5995233Y1412708D2*
X6020026D1*
X6092223D2*
X6116849D1*
X6200320D2*
X6223180D1*
X5994716Y1408898D2*
X6018852D1*
X6092970D2*
X6117934D1*
X6200320D2*
X6223180D1*
X5994058Y1405088D2*
X6018108D1*
X6093369D2*
X6118982D1*
X6200320D2*
X6223180D1*
X5993075Y1401278D2*
X6017725D1*
X6093676D2*
X6119673D1*
X6200320D2*
X6223180D1*
X5992071Y1397468D2*
X6017552D1*
X6094232D2*
X6120036D1*
X6200320D2*
X6223180D1*
X5991397Y1393658D2*
X6017482D1*
X6095172D2*
X6120201D1*
X6200320D2*
X6223180D1*
X5991040Y1389848D2*
X6017455D1*
X6096159D2*
X6120284D1*
X6200320D2*
X6223180D1*
X5990877Y1386038D2*
X6017445D1*
X6096827D2*
X6120444D1*
X6200320D2*
X6223180D1*
X5990810Y1382228D2*
X6017427D1*
X6097181D2*
X6120939D1*
X6200320D2*
X6223180D1*
X5990784Y1378418D2*
X6017292D1*
X6097343D2*
X6121855D1*
X6200320D2*
X6223180D1*
X5990775Y1374608D2*
X6016806D1*
X6097410D2*
X6122833D1*
X6200320D2*
X6223180D1*
X5990772Y1370798D2*
X6015893D1*
X6097436D2*
X6123498D1*
X6200320D2*
X6223180D1*
X5990771Y1366988D2*
X6014916D1*
X6097445D2*
X6123851D1*
X6200320D2*
X6223180D1*
X5990770Y1363178D2*
X6014252D1*
X6097448D2*
X6124013D1*
X6200320D2*
X6223180D1*
X5990770Y1359368D2*
X6013913D1*
X6097449D2*
X6124080D1*
X6200320D2*
X6223180D1*
X5990770Y1355558D2*
X6013886D1*
X6097450D2*
X6124106D1*
X6200320D2*
X6223180D1*
X5990770Y1351748D2*
X6014304D1*
X6097450D2*
X6124100D1*
X6200320D2*
X6223180D1*
X5990770Y1347938D2*
X6015191D1*
X6097450D2*
X6123970D1*
X6200320D2*
X6223180D1*
X5990770Y1344128D2*
X6016159D1*
X6097450D2*
X6123485D1*
X6200320D2*
X6223180D1*
X5990770Y1340318D2*
X6016820D1*
X6097450D2*
X6122573D1*
X6200320D2*
X6223180D1*
X5990770Y1336508D2*
X6017172D1*
X6097450D2*
X6121596D1*
X6200320D2*
X6223180D1*
X5990770Y1332698D2*
X6017333D1*
X6097435D2*
X6120932D1*
X6200320D2*
X6223180D1*
X5990785Y1328888D2*
X6017400D1*
X6097301D2*
X6120578D1*
X6200320D2*
X6223180D1*
X5990919Y1325078D2*
X6017426D1*
X6096816D2*
X6120417D1*
X6200320D2*
X6223180D1*
X5991404Y1321268D2*
X6017435D1*
X6095903D2*
X6120335D1*
X6200320D2*
X6223180D1*
X5992317Y1317458D2*
X6017453D1*
X6094926D2*
X6120175D1*
X6200320D2*
X6223180D1*
X5993294Y1313648D2*
X6017588D1*
X6094247D2*
X6119681D1*
X6200320D2*
X6223180D1*
X5993973Y1309838D2*
X6018074D1*
X6093760D2*
X6118765D1*
X6200320D2*
X6223180D1*
X5994460Y1306028D2*
X6019002D1*
X6093112D2*
X6117772D1*
X6200320D2*
X6223180D1*
X5995108Y1302218D2*
X6020113D1*
X6092118D2*
X6116973D1*
X6200320D2*
X6223180D1*
X5996102Y1298408D2*
X6021277D1*
X6090982D2*
X6116134D1*
X6200320D2*
X6223180D1*
X5997238Y1294598D2*
X6022677D1*
X6089807D2*
X6115045D1*
X6200320D2*
X6223180D1*
X5998413Y1290788D2*
X6024331D1*
X6088390D2*
X6113867D1*
X6200320D2*
X6223180D1*
X5999816Y1286978D2*
X6026273D1*
X6086601D2*
X6112677D1*
X6200320D2*
X6223180D1*
X6001456Y1283168D2*
X6028986D1*
X6084084D2*
X6111253D1*
X6200320D2*
X6223180D1*
X6003249Y1279358D2*
X6032626D1*
X6080733D2*
X6109477D1*
X6200320D2*
X6223180D1*
X6005239Y1275548D2*
X6042493D1*
X6071517D2*
X6107197D1*
X6200320D2*
X6223180D1*
X6007621Y1271738D2*
X6057038D1*
X6057463D2*
X6104294D1*
X6162220D2*
X6261280D1*
X6010583Y1267928D2*
X6100920D1*
X6162220D2*
X6261280D1*
X6014124Y1264118D2*
X6097145D1*
X6162220D2*
X6261280D1*
X6018521Y1260308D2*
X6092636D1*
X6162220D2*
X6261280D1*
X6024375Y1256498D2*
X6086734D1*
X6162220D2*
X6261280D1*
X6031894Y1252688D2*
X6079196D1*
X6162220D2*
X6261280D1*
X6040300Y1248878D2*
X6070780D1*
X1536907Y4319208D2*
Y4315398D1*
Y4311588D1*
Y4307778D1*
Y4303968D1*
Y4300158D1*
Y4296348D1*
Y4292538D1*
Y4288728D1*
Y4284918D1*
Y4281108D1*
Y4277298D1*
Y4273488D1*
Y4269678D1*
Y4265868D1*
Y4262058D1*
Y4258248D1*
Y4254438D1*
Y4250628D1*
Y4246818D1*
Y4243008D1*
Y4239198D1*
Y4235388D1*
Y4231578D1*
Y4227768D1*
Y4223958D1*
Y4220148D1*
Y4216338D1*
Y4212528D1*
Y4208718D1*
Y4204908D1*
Y4201098D1*
Y4197288D1*
Y4193478D1*
Y4189668D1*
Y4185858D1*
Y4182048D1*
Y4178238D1*
Y4174428D1*
Y4170618D1*
Y4166808D1*
Y4162998D1*
Y4159188D1*
Y4155378D1*
Y4151568D1*
Y4147758D1*
Y4143948D1*
Y4140138D1*
Y4136328D1*
Y4132518D1*
Y4128708D1*
X1498807D1*
Y4124898D1*
Y4121088D1*
Y4117278D1*
Y4113468D1*
Y4109658D1*
X1555957Y4319208D2*
X1556117Y4315398D1*
X1556754Y4311588D1*
X1557944Y4307778D1*
X1561086Y4303968D1*
X1565839Y4300158D1*
X1573017Y4296348D1*
X1581694Y4292538D1*
X1589154Y4288728D1*
X1594670Y4284918D1*
X1596364Y4281108D1*
X1597248Y4277298D1*
X1597644Y4273488D1*
X1597867Y4269678D1*
X1559767D1*
Y4265868D1*
Y4262058D1*
Y4258248D1*
Y4254438D1*
Y4250628D1*
Y4246818D1*
Y4243008D1*
Y4239198D1*
Y4235388D1*
Y4231578D1*
Y4227768D1*
Y4223958D1*
Y4220148D1*
Y4216338D1*
Y4212528D1*
Y4208718D1*
Y4204908D1*
Y4201098D1*
Y4197288D1*
Y4193478D1*
Y4189668D1*
Y4185858D1*
Y4182048D1*
Y4178238D1*
Y4174428D1*
Y4170618D1*
Y4166808D1*
Y4162998D1*
Y4159188D1*
Y4155378D1*
Y4151568D1*
Y4147758D1*
Y4143948D1*
Y4140138D1*
Y4136328D1*
Y4132518D1*
Y4128708D1*
X1597867D1*
Y4124898D1*
Y4121088D1*
Y4117278D1*
Y4113468D1*
Y4109658D1*
X1470300Y1466048D2*
X1461670Y1462238D1*
X1454538Y1458428D1*
X1448913Y1454618D1*
X1444372Y1450808D1*
X1440696Y1446998D1*
X1437788Y1443188D1*
X1435402Y1439378D1*
X1433298Y1435568D1*
X1431432Y1431758D1*
X1429859Y1427948D1*
X1428506Y1424138D1*
X1427159Y1420328D1*
X1425990Y1416518D1*
X1425233Y1412708D1*
X1424716Y1408898D1*
X1424058Y1405088D1*
X1423075Y1401278D1*
X1422071Y1397468D1*
X1421397Y1393658D1*
X1421040Y1389848D1*
X1420877Y1386038D1*
X1420810Y1382228D1*
X1420784Y1378418D1*
X1420775Y1374608D1*
X1420772Y1370798D1*
X1420771Y1366988D1*
X1420770Y1363178D1*
Y1359368D1*
Y1355558D1*
Y1351748D1*
Y1347938D1*
Y1344128D1*
Y1340318D1*
Y1336508D1*
Y1332698D1*
X1420785Y1328888D1*
X1420919Y1325078D1*
X1421404Y1321268D1*
X1422317Y1317458D1*
X1423294Y1313648D1*
X1423973Y1309838D1*
X1424460Y1306028D1*
X1425108Y1302218D1*
X1426102Y1298408D1*
X1427238Y1294598D1*
X1428413Y1290788D1*
X1429816Y1286978D1*
X1431456Y1283168D1*
X1433249Y1279358D1*
X1435239Y1275548D1*
X1437621Y1271738D1*
X1440583Y1267928D1*
X1444124Y1264118D1*
X1448521Y1260308D1*
X1454375Y1256498D1*
X1461894Y1252688D1*
X1470300Y1248878D1*
X1500780Y1466048D2*
X1509410Y1462238D1*
X1516542Y1458428D1*
X1522182Y1454618D1*
X1526842Y1450808D1*
X1530885Y1446998D1*
X1534339Y1443188D1*
X1537141Y1439378D1*
X1539373Y1435568D1*
X1541112Y1431758D1*
X1542533Y1427948D1*
X1543906Y1424138D1*
X1545100Y1420328D1*
X1545980Y1416518D1*
X1546849Y1412708D1*
X1547934Y1408898D1*
X1548982Y1405088D1*
X1549673Y1401278D1*
X1550036Y1397468D1*
X1550201Y1393658D1*
X1550284Y1389848D1*
X1550444Y1386038D1*
X1550939Y1382228D1*
X1551855Y1378418D1*
X1552833Y1374608D1*
X1553498Y1370798D1*
X1553851Y1366988D1*
X1554013Y1363178D1*
X1554080Y1359368D1*
X1554106Y1355558D1*
X1554100Y1351748D1*
X1553970Y1347938D1*
X1553485Y1344128D1*
X1552573Y1340318D1*
X1551596Y1336508D1*
X1550932Y1332698D1*
X1550578Y1328888D1*
X1550417Y1325078D1*
X1550335Y1321268D1*
X1550175Y1317458D1*
X1549681Y1313648D1*
X1548765Y1309838D1*
X1547772Y1306028D1*
X1546973Y1302218D1*
X1546134Y1298408D1*
X1545045Y1294598D1*
X1543867Y1290788D1*
X1542677Y1286978D1*
X1541253Y1283168D1*
X1539477Y1279358D1*
X1537197Y1275548D1*
X1534294Y1271738D1*
X1530920Y1267928D1*
X1527145Y1264118D1*
X1522636Y1260308D1*
X1516734Y1256498D1*
X1509196Y1252688D1*
X1500780Y1248878D1*
X1630320Y1462238D2*
Y1458428D1*
Y1454618D1*
Y1450808D1*
Y1446998D1*
Y1443188D1*
Y1439378D1*
Y1435568D1*
Y1431758D1*
Y1427948D1*
Y1424138D1*
Y1420328D1*
Y1416518D1*
Y1412708D1*
Y1408898D1*
Y1405088D1*
Y1401278D1*
Y1397468D1*
Y1393658D1*
Y1389848D1*
Y1386038D1*
Y1382228D1*
Y1378418D1*
Y1374608D1*
Y1370798D1*
Y1366988D1*
Y1363178D1*
Y1359368D1*
Y1355558D1*
Y1351748D1*
Y1347938D1*
Y1344128D1*
Y1340318D1*
Y1336508D1*
Y1332698D1*
Y1328888D1*
Y1325078D1*
Y1321268D1*
Y1317458D1*
Y1313648D1*
Y1309838D1*
Y1306028D1*
Y1302218D1*
Y1298408D1*
Y1294598D1*
Y1290788D1*
Y1286978D1*
Y1283168D1*
Y1279358D1*
Y1275548D1*
Y1271738D1*
X1592220D1*
Y1267928D1*
Y1264118D1*
Y1260308D1*
Y1256498D1*
Y1252688D1*
X1649370Y1462238D2*
X1649530Y1458428D1*
X1650167Y1454618D1*
X1651357Y1450808D1*
X1654499Y1446998D1*
X1659252Y1443188D1*
X1666430Y1439378D1*
X1675107Y1435568D1*
X1682568Y1431758D1*
X1688084Y1427948D1*
X1689778Y1424138D1*
X1690661Y1420328D1*
X1691058Y1416518D1*
X1691280Y1412708D1*
X1653180D1*
Y1408898D1*
Y1405088D1*
Y1401278D1*
Y1397468D1*
Y1393658D1*
Y1389848D1*
Y1386038D1*
Y1382228D1*
Y1378418D1*
Y1374608D1*
Y1370798D1*
Y1366988D1*
Y1363178D1*
Y1359368D1*
Y1355558D1*
Y1351748D1*
Y1347938D1*
Y1344128D1*
Y1340318D1*
Y1336508D1*
Y1332698D1*
Y1328888D1*
Y1325078D1*
Y1321268D1*
Y1317458D1*
Y1313648D1*
Y1309838D1*
Y1306028D1*
Y1302218D1*
Y1298408D1*
Y1294598D1*
Y1290788D1*
Y1286978D1*
Y1283168D1*
Y1279358D1*
Y1275548D1*
Y1271738D1*
X1691280D1*
Y1267928D1*
Y1264118D1*
Y1260308D1*
Y1256498D1*
Y1252688D1*
X1481730Y1446998D2*
X1474415Y1443188D1*
X1467935Y1439378D1*
X1462910Y1435568D1*
X1459292Y1431758D1*
X1456586Y1427948D1*
X1454457Y1424138D1*
X1452779Y1420328D1*
X1451388Y1416518D1*
X1450026Y1412708D1*
X1448852Y1408898D1*
X1448108Y1405088D1*
X1447725Y1401278D1*
X1447552Y1397468D1*
X1447482Y1393658D1*
X1447455Y1389848D1*
X1447445Y1386038D1*
X1447427Y1382228D1*
X1447292Y1378418D1*
X1446806Y1374608D1*
X1445893Y1370798D1*
X1444916Y1366988D1*
X1444252Y1363178D1*
X1443913Y1359368D1*
X1443886Y1355558D1*
X1444304Y1351748D1*
X1445191Y1347938D1*
X1446159Y1344128D1*
X1446820Y1340318D1*
X1447172Y1336508D1*
X1447333Y1332698D1*
X1447400Y1328888D1*
X1447426Y1325078D1*
X1447435Y1321268D1*
X1447453Y1317458D1*
X1447588Y1313648D1*
X1448074Y1309838D1*
X1449002Y1306028D1*
X1450113Y1302218D1*
X1451277Y1298408D1*
X1452677Y1294598D1*
X1454331Y1290788D1*
X1456273Y1286978D1*
X1458986Y1283168D1*
X1462626Y1279358D1*
X1472493Y1275548D1*
X1487038Y1271738D1*
X1504590Y1267928D1*
X1493160Y1446998D2*
X1500016Y1443188D1*
X1505921Y1439378D1*
X1510506Y1435568D1*
X1513874Y1431758D1*
X1516355Y1427948D1*
X1518194Y1424138D1*
X1519653Y1420328D1*
X1521039Y1416518D1*
X1522223Y1412708D1*
X1522970Y1408898D1*
X1523369Y1405088D1*
X1523676Y1401278D1*
X1524232Y1397468D1*
X1525172Y1393658D1*
X1526159Y1389848D1*
X1526827Y1386038D1*
X1527181Y1382228D1*
X1527343Y1378418D1*
X1527410Y1374608D1*
X1527436Y1370798D1*
X1527445Y1366988D1*
X1527448Y1363178D1*
X1527449Y1359368D1*
X1527450Y1355558D1*
Y1351748D1*
Y1347938D1*
Y1344128D1*
Y1340318D1*
Y1336508D1*
X1527435Y1332698D1*
X1527301Y1328888D1*
X1526816Y1325078D1*
X1525903Y1321268D1*
X1524926Y1317458D1*
X1524247Y1313648D1*
X1523760Y1309838D1*
X1523112Y1306028D1*
X1522118Y1302218D1*
X1520982Y1298408D1*
X1519807Y1294598D1*
X1518390Y1290788D1*
X1516601Y1286978D1*
X1514084Y1283168D1*
X1510733Y1279358D1*
X1501517Y1275548D1*
X1487463Y1271738D1*
X1470300Y1267928D1*
X6106907Y4319208D2*
Y4315398D1*
Y4311588D1*
Y4307778D1*
Y4303968D1*
Y4300158D1*
Y4296348D1*
Y4292538D1*
Y4288728D1*
Y4284918D1*
Y4281108D1*
Y4277298D1*
Y4273488D1*
Y4269678D1*
Y4265868D1*
Y4262058D1*
Y4258248D1*
Y4254438D1*
Y4250628D1*
Y4246818D1*
Y4243008D1*
Y4239198D1*
Y4235388D1*
Y4231578D1*
Y4227768D1*
Y4223958D1*
Y4220148D1*
Y4216338D1*
Y4212528D1*
Y4208718D1*
Y4204908D1*
Y4201098D1*
Y4197288D1*
Y4193478D1*
Y4189668D1*
Y4185858D1*
Y4182048D1*
Y4178238D1*
Y4174428D1*
Y4170618D1*
Y4166808D1*
Y4162998D1*
Y4159188D1*
Y4155378D1*
Y4151568D1*
Y4147758D1*
Y4143948D1*
Y4140138D1*
Y4136328D1*
Y4132518D1*
Y4128708D1*
X6068807D1*
Y4124898D1*
Y4121088D1*
Y4117278D1*
Y4113468D1*
Y4109658D1*
X6125957Y4319208D2*
X6126117Y4315398D1*
X6126754Y4311588D1*
X6127944Y4307778D1*
X6131086Y4303968D1*
X6135839Y4300158D1*
X6143017Y4296348D1*
X6151694Y4292538D1*
X6159154Y4288728D1*
X6164670Y4284918D1*
X6166364Y4281108D1*
X6167248Y4277298D1*
X6167644Y4273488D1*
X6167867Y4269678D1*
X6129767D1*
Y4265868D1*
Y4262058D1*
Y4258248D1*
Y4254438D1*
Y4250628D1*
Y4246818D1*
Y4243008D1*
Y4239198D1*
Y4235388D1*
Y4231578D1*
Y4227768D1*
Y4223958D1*
Y4220148D1*
Y4216338D1*
Y4212528D1*
Y4208718D1*
Y4204908D1*
Y4201098D1*
Y4197288D1*
Y4193478D1*
Y4189668D1*
Y4185858D1*
Y4182048D1*
Y4178238D1*
Y4174428D1*
Y4170618D1*
Y4166808D1*
Y4162998D1*
Y4159188D1*
Y4155378D1*
Y4151568D1*
Y4147758D1*
Y4143948D1*
Y4140138D1*
Y4136328D1*
Y4132518D1*
Y4128708D1*
X6167867D1*
Y4124898D1*
Y4121088D1*
Y4117278D1*
Y4113468D1*
Y4109658D1*
X6040300Y1466048D2*
X6031670Y1462238D1*
X6024538Y1458428D1*
X6018913Y1454618D1*
X6014372Y1450808D1*
X6010696Y1446998D1*
X6007788Y1443188D1*
X6005402Y1439378D1*
X6003298Y1435568D1*
X6001432Y1431758D1*
X5999859Y1427948D1*
X5998506Y1424138D1*
X5997159Y1420328D1*
X5995990Y1416518D1*
X5995233Y1412708D1*
X5994716Y1408898D1*
X5994058Y1405088D1*
X5993075Y1401278D1*
X5992071Y1397468D1*
X5991397Y1393658D1*
X5991040Y1389848D1*
X5990877Y1386038D1*
X5990810Y1382228D1*
X5990784Y1378418D1*
X5990775Y1374608D1*
X5990772Y1370798D1*
X5990771Y1366988D1*
X5990770Y1363178D1*
Y1359368D1*
Y1355558D1*
Y1351748D1*
Y1347938D1*
Y1344128D1*
Y1340318D1*
Y1336508D1*
Y1332698D1*
X5990785Y1328888D1*
X5990919Y1325078D1*
X5991404Y1321268D1*
X5992317Y1317458D1*
X5993294Y1313648D1*
X5993973Y1309838D1*
X5994460Y1306028D1*
X5995108Y1302218D1*
X5996102Y1298408D1*
X5997238Y1294598D1*
X5998413Y1290788D1*
X5999816Y1286978D1*
X6001456Y1283168D1*
X6003249Y1279358D1*
X6005239Y1275548D1*
X6007621Y1271738D1*
X6010583Y1267928D1*
X6014124Y1264118D1*
X6018521Y1260308D1*
X6024375Y1256498D1*
X6031894Y1252688D1*
X6040300Y1248878D1*
X6070780Y1466048D2*
X6079410Y1462238D1*
X6086542Y1458428D1*
X6092182Y1454618D1*
X6096842Y1450808D1*
X6100885Y1446998D1*
X6104339Y1443188D1*
X6107141Y1439378D1*
X6109373Y1435568D1*
X6111112Y1431758D1*
X6112533Y1427948D1*
X6113906Y1424138D1*
X6115100Y1420328D1*
X6115980Y1416518D1*
X6116849Y1412708D1*
X6117934Y1408898D1*
X6118982Y1405088D1*
X6119673Y1401278D1*
X6120036Y1397468D1*
X6120201Y1393658D1*
X6120284Y1389848D1*
X6120444Y1386038D1*
X6120939Y1382228D1*
X6121855Y1378418D1*
X6122833Y1374608D1*
X6123498Y1370798D1*
X6123851Y1366988D1*
X6124013Y1363178D1*
X6124080Y1359368D1*
X6124106Y1355558D1*
X6124100Y1351748D1*
X6123970Y1347938D1*
X6123485Y1344128D1*
X6122573Y1340318D1*
X6121596Y1336508D1*
X6120932Y1332698D1*
X6120578Y1328888D1*
X6120417Y1325078D1*
X6120335Y1321268D1*
X6120175Y1317458D1*
X6119681Y1313648D1*
X6118765Y1309838D1*
X6117772Y1306028D1*
X6116973Y1302218D1*
X6116134Y1298408D1*
X6115045Y1294598D1*
X6113867Y1290788D1*
X6112677Y1286978D1*
X6111253Y1283168D1*
X6109477Y1279358D1*
X6107197Y1275548D1*
X6104294Y1271738D1*
X6100920Y1267928D1*
X6097145Y1264118D1*
X6092636Y1260308D1*
X6086734Y1256498D1*
X6079196Y1252688D1*
X6070780Y1248878D1*
X6200320Y1462238D2*
Y1458428D1*
Y1454618D1*
Y1450808D1*
Y1446998D1*
Y1443188D1*
Y1439378D1*
Y1435568D1*
Y1431758D1*
Y1427948D1*
Y1424138D1*
Y1420328D1*
Y1416518D1*
Y1412708D1*
Y1408898D1*
Y1405088D1*
Y1401278D1*
Y1397468D1*
Y1393658D1*
Y1389848D1*
Y1386038D1*
Y1382228D1*
Y1378418D1*
Y1374608D1*
Y1370798D1*
Y1366988D1*
Y1363178D1*
Y1359368D1*
Y1355558D1*
Y1351748D1*
Y1347938D1*
Y1344128D1*
Y1340318D1*
Y1336508D1*
Y1332698D1*
Y1328888D1*
Y1325078D1*
Y1321268D1*
Y1317458D1*
Y1313648D1*
Y1309838D1*
Y1306028D1*
Y1302218D1*
Y1298408D1*
Y1294598D1*
Y1290788D1*
Y1286978D1*
Y1283168D1*
Y1279358D1*
Y1275548D1*
Y1271738D1*
X6162220D1*
Y1267928D1*
Y1264118D1*
Y1260308D1*
Y1256498D1*
Y1252688D1*
X6219370Y1462238D2*
X6219530Y1458428D1*
X6220167Y1454618D1*
X6221357Y1450808D1*
X6224499Y1446998D1*
X6229252Y1443188D1*
X6236430Y1439378D1*
X6245107Y1435568D1*
X6252568Y1431758D1*
X6258084Y1427948D1*
X6259778Y1424138D1*
X6260661Y1420328D1*
X6261058Y1416518D1*
X6261280Y1412708D1*
X6223180D1*
Y1408898D1*
Y1405088D1*
Y1401278D1*
Y1397468D1*
Y1393658D1*
Y1389848D1*
Y1386038D1*
Y1382228D1*
Y1378418D1*
Y1374608D1*
Y1370798D1*
Y1366988D1*
Y1363178D1*
Y1359368D1*
Y1355558D1*
Y1351748D1*
Y1347938D1*
Y1344128D1*
Y1340318D1*
Y1336508D1*
Y1332698D1*
Y1328888D1*
Y1325078D1*
Y1321268D1*
Y1317458D1*
Y1313648D1*
Y1309838D1*
Y1306028D1*
Y1302218D1*
Y1298408D1*
Y1294598D1*
Y1290788D1*
Y1286978D1*
Y1283168D1*
Y1279358D1*
Y1275548D1*
Y1271738D1*
X6261280D1*
Y1267928D1*
Y1264118D1*
Y1260308D1*
Y1256498D1*
Y1252688D1*
X6051730Y1446998D2*
X6044415Y1443188D1*
X6037935Y1439378D1*
X6032910Y1435568D1*
X6029292Y1431758D1*
X6026586Y1427948D1*
X6024457Y1424138D1*
X6022779Y1420328D1*
X6021388Y1416518D1*
X6020026Y1412708D1*
X6018852Y1408898D1*
X6018108Y1405088D1*
X6017725Y1401278D1*
X6017552Y1397468D1*
X6017482Y1393658D1*
X6017455Y1389848D1*
X6017445Y1386038D1*
X6017427Y1382228D1*
X6017292Y1378418D1*
X6016806Y1374608D1*
X6015893Y1370798D1*
X6014916Y1366988D1*
X6014252Y1363178D1*
X6013913Y1359368D1*
X6013886Y1355558D1*
X6014304Y1351748D1*
X6015191Y1347938D1*
X6016159Y1344128D1*
X6016820Y1340318D1*
X6017172Y1336508D1*
X6017333Y1332698D1*
X6017400Y1328888D1*
X6017426Y1325078D1*
X6017435Y1321268D1*
X6017453Y1317458D1*
X6017588Y1313648D1*
X6018074Y1309838D1*
X6019002Y1306028D1*
X6020113Y1302218D1*
X6021277Y1298408D1*
X6022677Y1294598D1*
X6024331Y1290788D1*
X6026273Y1286978D1*
X6028986Y1283168D1*
X6032626Y1279358D1*
X6042493Y1275548D1*
X6057038Y1271738D1*
X6074590Y1267928D1*
X6063160Y1446998D2*
X6070016Y1443188D1*
X6075921Y1439378D1*
X6080506Y1435568D1*
X6083874Y1431758D1*
X6086355Y1427948D1*
X6088194Y1424138D1*
X6089653Y1420328D1*
X6091039Y1416518D1*
X6092223Y1412708D1*
X6092970Y1408898D1*
X6093369Y1405088D1*
X6093676Y1401278D1*
X6094232Y1397468D1*
X6095172Y1393658D1*
X6096159Y1389848D1*
X6096827Y1386038D1*
X6097181Y1382228D1*
X6097343Y1378418D1*
X6097410Y1374608D1*
X6097436Y1370798D1*
X6097445Y1366988D1*
X6097448Y1363178D1*
X6097449Y1359368D1*
X6097450Y1355558D1*
Y1351748D1*
Y1347938D1*
Y1344128D1*
Y1340318D1*
Y1336508D1*
X6097435Y1332698D1*
X6097301Y1328888D1*
X6096816Y1325078D1*
X6095903Y1321268D1*
X6094926Y1317458D1*
X6094247Y1313648D1*
X6093760Y1309838D1*
X6093112Y1306028D1*
X6092118Y1302218D1*
X6090982Y1298408D1*
X6089807Y1294598D1*
X6088390Y1290788D1*
X6086601Y1286978D1*
X6084084Y1283168D1*
X6080733Y1279358D1*
X6071517Y1275548D1*
X6057463Y1271738D1*
X6040300Y1267928D1*
X1401643Y4375205D2*
D56*
Y4278059D1*
X1407680Y4259809D1*
X1413856Y4253772D1*
X1425930Y4247595D1*
X1438143D1*
X1450216Y4253772D1*
X1456253Y4259809D1*
X1462430Y4278059D1*
Y4290132D1*
X1362427Y4350778D2*
X1350214Y4356955D1*
X1331964Y4375065D1*
Y4247595D1*
X5948948Y4365205D2*
Y4268059D1*
X5954984Y4249809D1*
X5961161Y4243772D1*
X5973234Y4237595D1*
X5985448D1*
X5997521Y4243772D1*
X6003557Y4249809D1*
X6009734Y4268059D1*
Y4280132D1*
X5903555Y4334741D2*
Y4340778D1*
X5897519Y4352991D1*
X5891482Y4359028D1*
X5879269Y4365065D1*
X5854982D1*
X5842909Y4359028D1*
X5836872Y4352991D1*
X5830696Y4340778D1*
Y4328705D1*
X5836872Y4316491D1*
X5848946Y4298382D1*
X5909732Y4237595D1*
X5824659D1*
M02*
