M48
METRIC,0000.00
T01C0.486
T02C0.889
T03C0.9
T04C1.067
%
T01
X+004380Y+002420
X+004390Y+002290
X+004390Y+002160
X+004860Y+001840
X+005360Y+001720
X+004010Y+003200
X+003480Y+003860
X+003112Y+003466
X+002922Y+003260
X+002570Y+003260
X+002778Y+002757
X+003260Y+002460
X+003150Y+002288
X+002859Y+002040
T02
X+003310Y+001480
X+003310Y+001226
X+002050Y+001676
X+002050Y+001930
X+002570Y+003736
X+002570Y+003990
X+004140Y+004000
X+004140Y+003746
T03
X+001910Y+004080
X+003740Y+001240
X+004110Y+001240
X+005830Y+003920
T04
X+001570Y+003923
X+001570Y+003669
X+001570Y+003415
X+001570Y+003161
X+001570Y+002907
X+001570Y+002653
X+001570Y+002399
X+001570Y+002145
X+001570Y+001891
X+001570Y+001637
X+003710Y+001720
X+003964Y+001720
X+006140Y+001637
X+006140Y+001891
X+006140Y+002145
X+006140Y+002399
X+006140Y+002653
X+006140Y+002907
X+006140Y+003161
X+006140Y+003415
X+006140Y+003669
X+006140Y+003923
T00
M30
