G04 DipTrace 3.3.0.1*
G04 TopSilk.gbr*
%MOMM*%
G04 #@! TF.FileFunction,Legend,Top*
G04 #@! TF.Part,Single*
%ADD10C,0.25*%
%ADD12C,0.0762*%
%ADD25O,0.39103X0.39118*%
%ADD56C,0.19608*%
%FSLAX35Y35*%
G04*
G71*
G90*
G75*
G01*
G04 TopSilk*
%LPD*%
X1835050Y3935067D2*
D10*
X1964950D1*
X3365067Y2854950D2*
Y2725050D1*
X4419933Y3030050D2*
Y3159950D1*
X3655050Y4045067D2*
X3784950D1*
X3188093Y1249977D2*
G02X3190967Y1458833I119642J102802D01*
G01*
X3431936Y1249977D2*
G03X3429026Y1458833I-119731J102781D01*
G01*
X3119500Y1543513D2*
X3183011D1*
X3151255Y1511737D2*
Y1575247D1*
X2448093Y3759977D2*
G02X2450967Y3968833I119642J102802D01*
G01*
X2691936Y3759977D2*
G03X2689026Y3968833I-119731J102781D01*
G01*
X2379500Y4053513D2*
X2443011D1*
X2411255Y4021737D2*
Y4085247D1*
X4018093Y3769977D2*
G02X4020967Y3978833I119642J102802D01*
G01*
X4261936Y3769977D2*
G03X4259026Y3978833I-119731J102781D01*
G01*
X3949500Y4063513D2*
X4013011D1*
X3981255Y4031737D2*
Y4095247D1*
X1928093Y1699977D2*
G02X1930967Y1908833I119642J102802D01*
G01*
X2171936Y1699977D2*
G03X2169026Y1908833I-119731J102781D01*
G01*
X1859500Y1993513D2*
X1923011D1*
X1891255Y1961737D2*
Y2025247D1*
X3583093Y1593110D2*
X4075167D1*
Y1846850D1*
X3583093D1*
Y1593110D1*
X3689982Y3105460D2*
Y2105540D1*
X3950018Y3105460D2*
Y2105540D1*
X3689982D2*
X3950018D1*
X3689982Y3105460D2*
X3769976D1*
X3870024D2*
X3950018D1*
X3769976D2*
G03X3870024Y3105460I50024J28D01*
G01*
D25*
X2987772Y4018361D3*
X3125098Y4004994D2*
D10*
Y3705000D1*
X3205084Y4004994D2*
Y3705000D1*
X3125098D2*
X3205084D1*
X3125098Y4004994D2*
X3205084D1*
X1083350Y3413300D2*
D12*
X1129070D1*
X1083350Y3405680D2*
X1144310D1*
X1083350Y3398060D2*
X1159550D1*
X1083350Y3390440D2*
X1174790D1*
X1083350Y3382820D2*
X1106210D1*
X1129070D2*
X1190030D1*
X1083350Y3375200D2*
X1106210D1*
X1144310D2*
X1205270D1*
X1083350Y3367580D2*
X1106210D1*
X1159550D2*
X1220510D1*
X1083350Y3359960D2*
X1106210D1*
X1174760D2*
X1235750D1*
X1083350Y3352340D2*
X1106210D1*
X1189732D2*
X1250990D1*
X1083350Y3344720D2*
X1106210D1*
X1204001D2*
X1266230D1*
X1083350Y3337100D2*
X1106210D1*
X1217416D2*
X1281470D1*
X1083350Y3329480D2*
X1106210D1*
X1230703D2*
X1296650D1*
X1083350Y3321860D2*
X1106210D1*
X1244614D2*
X1311295D1*
X1083350Y3314240D2*
X1106210D1*
X1259147D2*
X1323998D1*
X1083350Y3306620D2*
X1106210D1*
X1274064D2*
X1334483D1*
X1083350Y3299000D2*
X1106210D1*
X1289170D2*
X1338553D1*
X1083350Y3291380D2*
X1106210D1*
X1304359D2*
X1340776D1*
X1083350Y3283760D2*
X1106210D1*
X1319579D2*
X1341821D1*
X1083350Y3276140D2*
X1106210D1*
X1334810D2*
X1342430D1*
X1083350Y3268520D2*
X1106210D1*
X1083350Y3260900D2*
X1106210D1*
X1083350Y3253280D2*
X1106210D1*
X1319570Y3199940D2*
X1342430D1*
X1319570Y3192320D2*
X1342430D1*
X1319570Y3184700D2*
X1342430D1*
X1319570Y3177080D2*
X1342430D1*
X1319570Y3169460D2*
X1342430D1*
X1319570Y3161840D2*
X1342430D1*
X1083350Y3154220D2*
X1342430D1*
X1084250Y3146600D2*
X1342430D1*
X1086237Y3138980D2*
X1342430D1*
X1093886Y3131360D2*
X1342430D1*
X1102777Y3123740D2*
X1145808D1*
X1319570D2*
X1342430D1*
X1110601Y3116120D2*
X1141351D1*
X1319570D2*
X1342430D1*
X1116912Y3108500D2*
X1138799D1*
X1319570D2*
X1342430D1*
X1119251Y3100880D2*
X1137562D1*
X1319570D2*
X1342430D1*
X1120517Y3093260D2*
X1137026D1*
X1319570D2*
X1342430D1*
X1121108Y3085640D2*
X1136806D1*
X1319570D2*
X1342430D1*
X1121450Y3078020D2*
X1136690D1*
X1319570D2*
X1342430D1*
X1098590Y3017060D2*
X1136690D1*
X1212890D2*
X1327190D1*
X1095955Y3009440D2*
X1132878D1*
X1212890D2*
X1331885D1*
X1093419Y3001820D2*
X1128453D1*
X1212890D2*
X1335992D1*
X1091004Y2994200D2*
X1124034D1*
X1212890D2*
X1339341D1*
X1088432Y2986580D2*
X1119860D1*
X1212890D2*
X1342138D1*
X1086113Y2978960D2*
X1115891D1*
X1212890D2*
X1235750D1*
X1318072D2*
X1344870D1*
X1084378Y2971340D2*
X1112276D1*
X1212890D2*
X1235750D1*
X1322529D2*
X1347222D1*
X1082647Y2963720D2*
X1109399D1*
X1212890D2*
X1235750D1*
X1325081D2*
X1348712D1*
X1080480Y2956100D2*
X1107408D1*
X1212890D2*
X1235750D1*
X1326318D2*
X1349480D1*
X1078386Y2948480D2*
X1105571D1*
X1212890D2*
X1235750D1*
X1326854D2*
X1349825D1*
X1077003Y2940860D2*
X1103393D1*
X1212890D2*
X1235750D1*
X1327067D2*
X1349966D1*
X1076307Y2933240D2*
X1101551D1*
X1212890D2*
X1235750D1*
X1327147D2*
X1350020D1*
X1076245Y2925620D2*
X1101135D1*
X1212890D2*
X1235750D1*
X1327146D2*
X1350040D1*
X1077080Y2918000D2*
X1102261D1*
X1326888D2*
X1350047D1*
X1078853Y2910380D2*
X1104152D1*
X1325890D2*
X1350019D1*
X1080817Y2902760D2*
X1106346D1*
X1323768D2*
X1349752D1*
X1082407Y2895140D2*
X1109123D1*
X1320546D2*
X1348751D1*
X1084113Y2887520D2*
X1112680D1*
X1316124D2*
X1346659D1*
X1086558Y2879900D2*
X1117527D1*
X1310340D2*
X1343704D1*
X1089914Y2872280D2*
X1124659D1*
X1303253D2*
X1340252D1*
X1094388Y2864660D2*
X1135214D1*
X1293726D2*
X1336323D1*
X1100161Y2857040D2*
X1151470D1*
X1277923D2*
X1331577D1*
X1106897Y2849420D2*
X1177325D1*
X1250236D2*
X1325660D1*
X1114443Y2841800D2*
X1214718D1*
X1208678D2*
X1318581D1*
X1123459Y2834180D2*
X1309789D1*
X1135262Y2826560D2*
X1298080D1*
X1150337Y2818940D2*
X1283043D1*
X1167170Y2811320D2*
X1266230D1*
X1380530Y2796080D2*
X1395770D1*
X1380530Y2788460D2*
X1395770D1*
X1380530Y2780840D2*
X1395770D1*
X1380530Y2773220D2*
X1395770D1*
X1380530Y2765600D2*
X1395770D1*
X1380530Y2757980D2*
X1395770D1*
X1380530Y2750360D2*
X1395770D1*
X1380530Y2742740D2*
X1395770D1*
X1380530Y2735120D2*
X1395770D1*
X1380530Y2727500D2*
X1395770D1*
X1380530Y2719880D2*
X1395770D1*
X1380530Y2712260D2*
X1395770D1*
X1380530Y2704640D2*
X1395770D1*
X1380530Y2697020D2*
X1395770D1*
X1380530Y2689400D2*
X1395770D1*
X1380530Y2681780D2*
X1395770D1*
X1380530Y2674160D2*
X1395770D1*
X1380530Y2666540D2*
X1395770D1*
X1380530Y2658920D2*
X1395770D1*
X1380530Y2651300D2*
X1395770D1*
X1380530Y2643680D2*
X1395770D1*
X1380530Y2636060D2*
X1395770D1*
X1380530Y2628440D2*
X1395770D1*
X1380530Y2620820D2*
X1395770D1*
X1380530Y2613200D2*
X1395770D1*
X1380530Y2605580D2*
X1395770D1*
X1380530Y2597960D2*
X1395770D1*
X1319570Y2559860D2*
X1342430D1*
X1319570Y2552240D2*
X1342430D1*
X1319570Y2544620D2*
X1342430D1*
X1319570Y2537000D2*
X1342430D1*
X1319570Y2529380D2*
X1342430D1*
X1319570Y2521760D2*
X1342430D1*
X1083350Y2514140D2*
X1342430D1*
X1084250Y2506520D2*
X1342430D1*
X1086237Y2498900D2*
X1342430D1*
X1093886Y2491280D2*
X1342430D1*
X1102777Y2483660D2*
X1145808D1*
X1319570D2*
X1342430D1*
X1110601Y2476040D2*
X1141351D1*
X1319570D2*
X1342430D1*
X1116912Y2468420D2*
X1138799D1*
X1319570D2*
X1342430D1*
X1119251Y2460800D2*
X1137562D1*
X1319570D2*
X1342430D1*
X1120517Y2453180D2*
X1137026D1*
X1319570D2*
X1342430D1*
X1121108Y2445560D2*
X1136806D1*
X1319570D2*
X1342430D1*
X1121450Y2437940D2*
X1136690D1*
X1319570D2*
X1342430D1*
X1266230Y2384600D2*
X1281470D1*
X1249260Y2376980D2*
X1298730D1*
X1090970Y2369360D2*
X1129070D1*
X1236002D2*
X1312965D1*
X1088365Y2361740D2*
X1124345D1*
X1226817D2*
X1323977D1*
X1086097Y2354120D2*
X1120000D1*
X1220423D2*
X1332324D1*
X1084623Y2346500D2*
X1115948D1*
X1215521D2*
X1267757D1*
X1294922D2*
X1338556D1*
X1083608Y2338880D2*
X1112268D1*
X1211541D2*
X1255979D1*
X1305992D2*
X1343242D1*
X1082301Y2331260D2*
X1109139D1*
X1208530D2*
X1247046D1*
X1314040D2*
X1346546D1*
X1080338Y2323640D2*
X1106440D1*
X1206492D2*
X1241014D1*
X1319675D2*
X1348450D1*
X1078332Y2316020D2*
X1103777D1*
X1204639D2*
X1236935D1*
X1323407D2*
X1349383D1*
X1076984Y2308400D2*
X1101707D1*
X1202425D2*
X1233653D1*
X1325486D2*
X1349791D1*
X1076300Y2300780D2*
X1100573D1*
X1200285D2*
X1231053D1*
X1326487D2*
X1349955D1*
X1076242Y2293160D2*
X1102128D1*
X1198628D2*
X1229214D1*
X1326918D2*
X1350016D1*
X1077079Y2285540D2*
X1104121D1*
X1196900D2*
X1227446D1*
X1327061D2*
X1350039D1*
X1078882Y2277920D2*
X1106369D1*
X1194446D2*
X1225236D1*
X1326857D2*
X1350046D1*
X1081085Y2270300D2*
X1109598D1*
X1190939D2*
X1222870D1*
X1325909D2*
X1350019D1*
X1083408Y2262680D2*
X1114000D1*
X1186485D2*
X1220485D1*
X1324063D2*
X1349752D1*
X1086235Y2255060D2*
X1128865D1*
X1173726D2*
X1217636D1*
X1321814D2*
X1348781D1*
X1089780Y2247440D2*
X1152778D1*
X1153765D2*
X1214083D1*
X1319247D2*
X1346926D1*
X1094366Y2239820D2*
X1209495D1*
X1315714D2*
X1344705D1*
X1100462Y2232200D2*
X1203399D1*
X1311321D2*
X1342399D1*
X1108356Y2224580D2*
X1195504D1*
X1306702D2*
X1339802D1*
X1118169Y2216960D2*
X1185691D1*
X1301853D2*
X1337197D1*
X1129070Y2209340D2*
X1174790D1*
X1296710D2*
X1334810D1*
X1319570Y2186480D2*
X1342430D1*
X1319570Y2178860D2*
X1342430D1*
X1319570Y2171240D2*
X1342430D1*
X1319570Y2163620D2*
X1342430D1*
X1319570Y2156000D2*
X1342430D1*
X1319570Y2148380D2*
X1342430D1*
X1319570Y2140760D2*
X1342430D1*
X1319570Y2133140D2*
X1342430D1*
X1319570Y2125520D2*
X1342430D1*
X1319570Y2117900D2*
X1342430D1*
X1319570Y2110280D2*
X1342430D1*
X1319570Y2102660D2*
X1342430D1*
X1319570Y2095040D2*
X1342430D1*
X1319570Y2087420D2*
X1342430D1*
X1319570Y2079800D2*
X1342430D1*
X1319570Y2072180D2*
X1342430D1*
X1083350Y2064560D2*
X1342430D1*
X1083350Y2056940D2*
X1342430D1*
X1083350Y2049320D2*
X1342430D1*
X1083350Y2041700D2*
X1342430D1*
X1083350Y3413300D2*
Y3405680D1*
Y3398060D1*
Y3390440D1*
Y3382820D1*
Y3375200D1*
Y3367580D1*
Y3359960D1*
Y3352340D1*
Y3344720D1*
Y3337100D1*
Y3329480D1*
Y3321860D1*
Y3314240D1*
Y3306620D1*
Y3299000D1*
Y3291380D1*
Y3283760D1*
Y3276140D1*
Y3268520D1*
Y3260900D1*
Y3253280D1*
X1129070Y3413300D2*
X1144310Y3405680D1*
X1159550Y3398060D1*
X1174790Y3390440D1*
X1190030Y3382820D1*
X1205270Y3375200D1*
X1220510Y3367580D1*
X1235750Y3359960D1*
X1250990Y3352340D1*
X1266230Y3344720D1*
X1281470Y3337100D1*
X1296650Y3329480D1*
X1311295Y3321860D1*
X1323998Y3314240D1*
X1334483Y3306620D1*
X1338553Y3299000D1*
X1340776Y3291380D1*
X1341821Y3283760D1*
X1342430Y3276140D1*
X1106210Y3390440D2*
Y3382820D1*
Y3375200D1*
Y3367580D1*
Y3359960D1*
Y3352340D1*
Y3344720D1*
Y3337100D1*
Y3329480D1*
Y3321860D1*
Y3314240D1*
Y3306620D1*
Y3299000D1*
Y3291380D1*
Y3283760D1*
Y3276140D1*
Y3268520D1*
Y3260900D1*
Y3253280D1*
X1113830Y3390440D2*
X1129070Y3382820D1*
X1144310Y3375200D1*
X1159550Y3367580D1*
X1174760Y3359960D1*
X1189732Y3352340D1*
X1204001Y3344720D1*
X1217416Y3337100D1*
X1230703Y3329480D1*
X1244614Y3321860D1*
X1259147Y3314240D1*
X1274064Y3306620D1*
X1289170Y3299000D1*
X1304359Y3291380D1*
X1319579Y3283760D1*
X1334810Y3276140D1*
X1319570Y3199940D2*
Y3192320D1*
Y3184700D1*
Y3177080D1*
Y3169460D1*
Y3161840D1*
Y3154220D1*
X1342430Y3199940D2*
Y3192320D1*
Y3184700D1*
Y3177080D1*
Y3169460D1*
Y3161840D1*
Y3154220D1*
Y3146600D1*
Y3138980D1*
Y3131360D1*
Y3123740D1*
Y3116120D1*
Y3108500D1*
Y3100880D1*
Y3093260D1*
Y3085640D1*
Y3078020D1*
X1083350Y3154220D2*
X1084250Y3146600D1*
X1086237Y3138980D1*
X1093886Y3131360D1*
X1102777Y3123740D1*
X1110601Y3116120D1*
X1116912Y3108500D1*
X1119251Y3100880D1*
X1120517Y3093260D1*
X1121108Y3085640D1*
X1121450Y3078020D1*
X1151930Y3131360D2*
X1145808Y3123740D1*
X1141351Y3116120D1*
X1138799Y3108500D1*
X1137562Y3100880D1*
X1137026Y3093260D1*
X1136806Y3085640D1*
X1136690Y3078020D1*
X1319570Y3131360D2*
Y3123740D1*
Y3116120D1*
Y3108500D1*
Y3100880D1*
Y3093260D1*
Y3085640D1*
Y3078020D1*
X1098590Y3017060D2*
X1095955Y3009440D1*
X1093419Y3001820D1*
X1091004Y2994200D1*
X1088432Y2986580D1*
X1086113Y2978960D1*
X1084378Y2971340D1*
X1082647Y2963720D1*
X1080480Y2956100D1*
X1078386Y2948480D1*
X1077003Y2940860D1*
X1076307Y2933240D1*
X1076245Y2925620D1*
X1077080Y2918000D1*
X1078853Y2910380D1*
X1080817Y2902760D1*
X1082407Y2895140D1*
X1084113Y2887520D1*
X1086558Y2879900D1*
X1089914Y2872280D1*
X1094388Y2864660D1*
X1100161Y2857040D1*
X1106897Y2849420D1*
X1114443Y2841800D1*
X1123459Y2834180D1*
X1135262Y2826560D1*
X1150337Y2818940D1*
X1167170Y2811320D1*
X1136690Y3017060D2*
X1132878Y3009440D1*
X1128453Y3001820D1*
X1124034Y2994200D1*
X1119860Y2986580D1*
X1115891Y2978960D1*
X1112276Y2971340D1*
X1109399Y2963720D1*
X1107408Y2956100D1*
X1105571Y2948480D1*
X1103393Y2940860D1*
X1101551Y2933240D1*
X1101135Y2925620D1*
X1102261Y2918000D1*
X1104152Y2910380D1*
X1106346Y2902760D1*
X1109123Y2895140D1*
X1112680Y2887520D1*
X1117527Y2879900D1*
X1124659Y2872280D1*
X1135214Y2864660D1*
X1151470Y2857040D1*
X1177325Y2849420D1*
X1214718Y2841800D1*
X1258610Y2834180D1*
X1212890Y3017060D2*
Y3009440D1*
Y3001820D1*
Y2994200D1*
Y2986580D1*
Y2978960D1*
Y2971340D1*
Y2963720D1*
Y2956100D1*
Y2948480D1*
Y2940860D1*
Y2933240D1*
Y2925620D1*
X1327190Y3017060D2*
X1331885Y3009440D1*
X1335992Y3001820D1*
X1339341Y2994200D1*
X1342138Y2986580D1*
X1344870Y2978960D1*
X1347222Y2971340D1*
X1348712Y2963720D1*
X1349480Y2956100D1*
X1349825Y2948480D1*
X1349966Y2940860D1*
X1350020Y2933240D1*
X1350040Y2925620D1*
X1350047Y2918000D1*
X1350019Y2910380D1*
X1349752Y2902760D1*
X1348751Y2895140D1*
X1346659Y2887520D1*
X1343704Y2879900D1*
X1340252Y2872280D1*
X1336323Y2864660D1*
X1331577Y2857040D1*
X1325660Y2849420D1*
X1318581Y2841800D1*
X1309789Y2834180D1*
X1298080Y2826560D1*
X1283043Y2818940D1*
X1266230Y2811320D1*
X1235750Y2986580D2*
Y2978960D1*
Y2971340D1*
Y2963720D1*
Y2956100D1*
Y2948480D1*
Y2940860D1*
Y2933240D1*
Y2925620D1*
X1311950Y2986580D2*
X1318072Y2978960D1*
X1322529Y2971340D1*
X1325081Y2963720D1*
X1326318Y2956100D1*
X1326854Y2948480D1*
X1327067Y2940860D1*
X1327147Y2933240D1*
X1327146Y2925620D1*
X1326888Y2918000D1*
X1325890Y2910380D1*
X1323768Y2902760D1*
X1320546Y2895140D1*
X1316124Y2887520D1*
X1310340Y2879900D1*
X1303253Y2872280D1*
X1293726Y2864660D1*
X1277923Y2857040D1*
X1250236Y2849420D1*
X1208678Y2841800D1*
X1159550Y2834180D1*
X1380530Y2796080D2*
Y2788460D1*
Y2780840D1*
Y2773220D1*
Y2765600D1*
Y2757980D1*
Y2750360D1*
Y2742740D1*
Y2735120D1*
Y2727500D1*
Y2719880D1*
Y2712260D1*
Y2704640D1*
Y2697020D1*
Y2689400D1*
Y2681780D1*
Y2674160D1*
Y2666540D1*
Y2658920D1*
Y2651300D1*
Y2643680D1*
Y2636060D1*
Y2628440D1*
Y2620820D1*
Y2613200D1*
Y2605580D1*
Y2597960D1*
X1395770Y2796080D2*
Y2788460D1*
Y2780840D1*
Y2773220D1*
Y2765600D1*
Y2757980D1*
Y2750360D1*
Y2742740D1*
Y2735120D1*
Y2727500D1*
Y2719880D1*
Y2712260D1*
Y2704640D1*
Y2697020D1*
Y2689400D1*
Y2681780D1*
Y2674160D1*
Y2666540D1*
Y2658920D1*
Y2651300D1*
Y2643680D1*
Y2636060D1*
Y2628440D1*
Y2620820D1*
Y2613200D1*
Y2605580D1*
Y2597960D1*
X1319570Y2559860D2*
Y2552240D1*
Y2544620D1*
Y2537000D1*
Y2529380D1*
Y2521760D1*
Y2514140D1*
X1342430Y2559860D2*
Y2552240D1*
Y2544620D1*
Y2537000D1*
Y2529380D1*
Y2521760D1*
Y2514140D1*
Y2506520D1*
Y2498900D1*
Y2491280D1*
Y2483660D1*
Y2476040D1*
Y2468420D1*
Y2460800D1*
Y2453180D1*
Y2445560D1*
Y2437940D1*
X1083350Y2514140D2*
X1084250Y2506520D1*
X1086237Y2498900D1*
X1093886Y2491280D1*
X1102777Y2483660D1*
X1110601Y2476040D1*
X1116912Y2468420D1*
X1119251Y2460800D1*
X1120517Y2453180D1*
X1121108Y2445560D1*
X1121450Y2437940D1*
X1151930Y2491280D2*
X1145808Y2483660D1*
X1141351Y2476040D1*
X1138799Y2468420D1*
X1137562Y2460800D1*
X1137026Y2453180D1*
X1136806Y2445560D1*
X1136690Y2437940D1*
X1319570Y2491280D2*
Y2483660D1*
Y2476040D1*
Y2468420D1*
Y2460800D1*
Y2453180D1*
Y2445560D1*
Y2437940D1*
X1266230Y2384600D2*
X1249260Y2376980D1*
X1236002Y2369360D1*
X1226817Y2361740D1*
X1220423Y2354120D1*
X1215521Y2346500D1*
X1211541Y2338880D1*
X1208530Y2331260D1*
X1206492Y2323640D1*
X1204639Y2316020D1*
X1202425Y2308400D1*
X1200285Y2300780D1*
X1198628Y2293160D1*
X1196900Y2285540D1*
X1194446Y2277920D1*
X1190939Y2270300D1*
X1186485Y2262680D1*
X1173726Y2255060D1*
X1153765Y2247440D1*
X1129070Y2239820D1*
X1281470Y2384600D2*
X1298730Y2376980D1*
X1312965Y2369360D1*
X1323977Y2361740D1*
X1332324Y2354120D1*
X1338556Y2346500D1*
X1343242Y2338880D1*
X1346546Y2331260D1*
X1348450Y2323640D1*
X1349383Y2316020D1*
X1349791Y2308400D1*
X1349955Y2300780D1*
X1350016Y2293160D1*
X1350039Y2285540D1*
X1350046Y2277920D1*
X1350019Y2270300D1*
X1349752Y2262680D1*
X1348781Y2255060D1*
X1346926Y2247440D1*
X1344705Y2239820D1*
X1342399Y2232200D1*
X1339802Y2224580D1*
X1337197Y2216960D1*
X1334810Y2209340D1*
X1090970Y2369360D2*
X1088365Y2361740D1*
X1086097Y2354120D1*
X1084623Y2346500D1*
X1083608Y2338880D1*
X1082301Y2331260D1*
X1080338Y2323640D1*
X1078332Y2316020D1*
X1076984Y2308400D1*
X1076300Y2300780D1*
X1076242Y2293160D1*
X1077079Y2285540D1*
X1078882Y2277920D1*
X1081085Y2270300D1*
X1083408Y2262680D1*
X1086235Y2255060D1*
X1089780Y2247440D1*
X1094366Y2239820D1*
X1100462Y2232200D1*
X1108356Y2224580D1*
X1118169Y2216960D1*
X1129070Y2209340D1*
Y2369360D2*
X1124345Y2361740D1*
X1120000Y2354120D1*
X1115948Y2346500D1*
X1112268Y2338880D1*
X1109139Y2331260D1*
X1106440Y2323640D1*
X1103777Y2316020D1*
X1101707Y2308400D1*
X1100573Y2300780D1*
X1102128Y2293160D1*
X1104121Y2285540D1*
X1106369Y2277920D1*
X1109598Y2270300D1*
X1114000Y2262680D1*
X1128865Y2255060D1*
X1152778Y2247440D1*
X1182410Y2239820D1*
X1281470Y2354120D2*
X1267757Y2346500D1*
X1255979Y2338880D1*
X1247046Y2331260D1*
X1241014Y2323640D1*
X1236935Y2316020D1*
X1233653Y2308400D1*
X1231053Y2300780D1*
X1229214Y2293160D1*
X1227446Y2285540D1*
X1225236Y2277920D1*
X1222870Y2270300D1*
X1220485Y2262680D1*
X1217636Y2255060D1*
X1214083Y2247440D1*
X1209495Y2239820D1*
X1203399Y2232200D1*
X1195504Y2224580D1*
X1185691Y2216960D1*
X1174790Y2209340D1*
X1281470Y2354120D2*
X1294922Y2346500D1*
X1305992Y2338880D1*
X1314040Y2331260D1*
X1319675Y2323640D1*
X1323407Y2316020D1*
X1325486Y2308400D1*
X1326487Y2300780D1*
X1326918Y2293160D1*
X1327061Y2285540D1*
X1326857Y2277920D1*
X1325909Y2270300D1*
X1324063Y2262680D1*
X1321814Y2255060D1*
X1319247Y2247440D1*
X1315714Y2239820D1*
X1311321Y2232200D1*
X1306702Y2224580D1*
X1301853Y2216960D1*
X1296710Y2209340D1*
X1319570Y2186480D2*
Y2178860D1*
Y2171240D1*
Y2163620D1*
Y2156000D1*
Y2148380D1*
Y2140760D1*
Y2133140D1*
Y2125520D1*
Y2117900D1*
Y2110280D1*
Y2102660D1*
Y2095040D1*
Y2087420D1*
Y2079800D1*
Y2072180D1*
Y2064560D1*
X1342430Y2186480D2*
Y2178860D1*
Y2171240D1*
Y2163620D1*
Y2156000D1*
Y2148380D1*
Y2140760D1*
Y2133140D1*
Y2125520D1*
Y2117900D1*
Y2110280D1*
Y2102660D1*
Y2095040D1*
Y2087420D1*
Y2079800D1*
Y2072180D1*
Y2064560D1*
Y2056940D1*
Y2049320D1*
Y2041700D1*
X1083350Y2064560D2*
Y2056940D1*
Y2049320D1*
Y2041700D1*
X2059337Y3778444D2*
D56*
X2047264Y3772407D1*
X2035050Y3760194D1*
X2029013Y3748121D1*
Y3723834D1*
X2035050Y3711621D1*
X2047263Y3699548D1*
X2059336Y3693371D1*
X2077586Y3687334D1*
X2108050D1*
X2126160Y3693371D1*
X2138373Y3699548D1*
X2150446Y3711621D1*
X2156623Y3723834D1*
Y3748121D1*
X2150446Y3760194D1*
X2138373Y3772407D1*
X2126160Y3778444D1*
X2059477Y3823837D2*
X2053440D1*
X2041227Y3829873D1*
X2035190Y3835910D1*
X2029154Y3848123D1*
Y3872410D1*
X2035190Y3884483D1*
X2041227Y3890519D1*
X2053440Y3896696D1*
X2065514D1*
X2077727Y3890519D1*
X2095837Y3878446D1*
X2156623Y3817659D1*
Y3902733D1*
X2818444Y2830664D2*
X2812407Y2842737D1*
X2800194Y2854950D1*
X2788121Y2860987D1*
X2763834D1*
X2751621Y2854950D1*
X2739548Y2842737D1*
X2733371Y2830664D1*
X2727334Y2812414D1*
Y2781950D1*
X2733371Y2763840D1*
X2739548Y2751627D1*
X2751621Y2739554D1*
X2763834Y2733377D1*
X2788121D1*
X2800194Y2739554D1*
X2812407Y2751627D1*
X2818444Y2763840D1*
X2869873Y2860846D2*
X2936556D1*
X2900196Y2812273D1*
X2918446D1*
X2930519Y2806237D1*
X2936556Y2800200D1*
X2942733Y2781950D1*
Y2769877D1*
X2936556Y2751627D1*
X2924483Y2739414D1*
X2906233Y2733377D1*
X2887983D1*
X2869873Y2739414D1*
X2863836Y2745590D1*
X2857659Y2757664D1*
X4580359Y3325664D2*
X4574322Y3337737D1*
X4562109Y3349950D1*
X4550036Y3355987D1*
X4525749D1*
X4513536Y3349950D1*
X4501463Y3337737D1*
X4495286Y3325664D1*
X4489249Y3307414D1*
Y3276950D1*
X4495286Y3258840D1*
X4501463Y3246627D1*
X4513536Y3234554D1*
X4525749Y3228377D1*
X4550036D1*
X4562109Y3234554D1*
X4574322Y3246627D1*
X4580359Y3258840D1*
X4680361Y3228377D2*
Y3355846D1*
X4619575Y3270914D1*
X4710684D1*
X3489337Y3848444D2*
X3477264Y3842407D1*
X3465050Y3830194D1*
X3459013Y3818121D1*
Y3793834D1*
X3465050Y3781621D1*
X3477263Y3769548D1*
X3489336Y3763371D1*
X3507586Y3757334D1*
X3538050D1*
X3556160Y3763371D1*
X3568373Y3769548D1*
X3580446Y3781621D1*
X3586623Y3793834D1*
Y3818121D1*
X3580446Y3830194D1*
X3568373Y3842407D1*
X3556160Y3848444D1*
X3459154Y3960519D2*
Y3899873D1*
X3513764Y3893837D1*
X3507727Y3899873D1*
X3501550Y3918123D1*
Y3936233D1*
X3507727Y3954483D1*
X3519800Y3966696D1*
X3538050Y3972733D1*
X3550123D1*
X3568373Y3966696D1*
X3580587Y3954483D1*
X3586623Y3936233D1*
Y3918123D1*
X3580587Y3899873D1*
X3574410Y3893836D1*
X3562337Y3887660D1*
X3217374Y1761233D2*
Y1633624D1*
X3259910D1*
X3278160Y1639801D1*
X3290374Y1651874D1*
X3296410Y1664087D1*
X3302447Y1682197D1*
Y1712660D1*
X3296410Y1730910D1*
X3290374Y1742983D1*
X3278160Y1755197D1*
X3259910Y1761233D1*
X3217374D1*
X3341663Y1736806D2*
X3353876Y1742983D1*
X3372126Y1761093D1*
Y1633624D1*
X2450069Y4271233D2*
Y4143624D1*
X2492606D1*
X2510856Y4149801D1*
X2523069Y4161874D1*
X2529106Y4174087D1*
X2535142Y4192197D1*
Y4222660D1*
X2529106Y4240910D1*
X2523069Y4252983D1*
X2510856Y4265197D1*
X2492606Y4271233D1*
X2450069D1*
X2580535Y4240770D2*
Y4246806D1*
X2586571Y4259020D1*
X2592608Y4265056D1*
X2604821Y4271093D1*
X2629108D1*
X2641181Y4265056D1*
X2647217Y4259020D1*
X2653394Y4246806D1*
Y4234733D1*
X2647217Y4222520D1*
X2635144Y4204410D1*
X2574358Y4143624D1*
X2659431D1*
X4017051Y4281233D2*
Y4153624D1*
X4059587D1*
X4077837Y4159801D1*
X4090051Y4171874D1*
X4096087Y4184087D1*
X4102124Y4202197D1*
Y4232660D1*
X4096087Y4250910D1*
X4090051Y4262983D1*
X4077837Y4275197D1*
X4059587Y4281233D1*
X4017051D1*
X4202126Y4153624D2*
Y4281093D1*
X4141340Y4196160D1*
X4232449D1*
X1930069Y2211233D2*
Y2083624D1*
X1972606D1*
X1990856Y2089801D1*
X2003069Y2101874D1*
X2009106Y2114087D1*
X2015142Y2132197D1*
Y2162660D1*
X2009106Y2180910D1*
X2003069Y2192983D1*
X1990856Y2205197D1*
X1972606Y2211233D1*
X1930069D1*
X2127217Y2211093D2*
X2066571D1*
X2060535Y2156483D1*
X2066571Y2162520D1*
X2084821Y2168697D1*
X2102931D1*
X2121181Y2162520D1*
X2133394Y2150447D1*
X2139431Y2132197D1*
Y2120124D1*
X2133394Y2101874D1*
X2121181Y2089660D1*
X2102931Y2083624D1*
X2084821D1*
X2066571Y2089660D1*
X2060535Y2095837D1*
X2054358Y2107910D1*
X3797379Y2032837D2*
Y1935690D1*
X3791342Y1917440D1*
X3785165Y1911404D1*
X3773092Y1905227D1*
X3760879D1*
X3748806Y1911404D1*
X3742769Y1917440D1*
X3736592Y1935690D1*
Y1947764D1*
X3848808Y2032696D2*
X3915491D1*
X3879131Y1984123D1*
X3897381D1*
X3909454Y1978087D1*
X3915491Y1972050D1*
X3921668Y1953800D1*
Y1941727D1*
X3915491Y1923477D1*
X3903418Y1911264D1*
X3885168Y1905227D1*
X3866918D1*
X3848808Y1911264D1*
X3842771Y1917440D1*
X3836595Y1929514D1*
X5029800Y2217624D2*
Y2272234D1*
X5023623Y2290484D1*
X5017587Y2296661D1*
X5005514Y2302697D1*
X4993300D1*
X4981227Y2296661D1*
X4975050Y2290484D1*
X4969013Y2272234D1*
Y2217624D1*
X5096623D1*
X5029800Y2260161D2*
X5096623Y2302697D1*
X4993440Y2341913D2*
X4987264Y2354126D1*
X4969154Y2372376D1*
X5096623D1*
X5019800Y1720319D2*
Y1774929D1*
X5013623Y1793179D1*
X5007587Y1799356D1*
X4995514Y1805392D1*
X4983300D1*
X4971227Y1799356D1*
X4965050Y1793179D1*
X4959013Y1774929D1*
Y1720319D1*
X5086623D1*
X5019800Y1762856D2*
X5086623Y1805392D1*
X4989477Y1850785D2*
X4983440D1*
X4971227Y1856822D1*
X4965190Y1862858D1*
X4959154Y1875071D1*
Y1899358D1*
X4965190Y1911431D1*
X4971227Y1917468D1*
X4983440Y1923645D1*
X4995514Y1923644D1*
X5007727Y1917468D1*
X5025837Y1905394D1*
X5086623Y1844608D1*
Y1929681D1*
X5699800Y2190319D2*
Y2244929D1*
X5693623Y2263179D1*
X5687587Y2269356D1*
X5675514Y2275392D1*
X5663300D1*
X5651227Y2269356D1*
X5645050Y2263179D1*
X5639013Y2244929D1*
Y2190319D1*
X5766623D1*
X5699800Y2232856D2*
X5766623Y2275392D1*
X5639154Y2326822D2*
Y2393504D1*
X5687727Y2357145D1*
Y2375394D1*
X5693764Y2387468D1*
X5699800Y2393504D1*
X5718050Y2399681D1*
X5730123D1*
X5748373Y2393504D1*
X5760587Y2381431D1*
X5766623Y2363181D1*
Y2344931D1*
X5760587Y2326821D1*
X5754410Y2320785D1*
X5742337Y2314608D1*
X5349800Y2197301D2*
Y2251911D1*
X5343623Y2270161D1*
X5337587Y2276338D1*
X5325514Y2282374D1*
X5313300D1*
X5301227Y2276338D1*
X5295050Y2270161D1*
X5289013Y2251911D1*
Y2197301D1*
X5416623D1*
X5349800Y2239838D2*
X5416623Y2282374D1*
Y2382376D2*
X5289154D1*
X5374087Y2321590D1*
Y2412699D1*
X4679800Y2190319D2*
Y2244929D1*
X4673623Y2263179D1*
X4667587Y2269356D1*
X4655514Y2275392D1*
X4643300D1*
X4631227Y2269356D1*
X4625050Y2263179D1*
X4619013Y2244929D1*
Y2190319D1*
X4746623D1*
X4679800Y2232856D2*
X4746623Y2275392D1*
X4619154Y2387468D2*
Y2326822D1*
X4673764Y2320785D1*
X4667727Y2326821D1*
X4661550Y2345071D1*
Y2363181D1*
X4667727Y2381431D1*
X4679800Y2393644D1*
X4698050Y2399681D1*
X4710123D1*
X4728373Y2393644D1*
X4740587Y2381431D1*
X4746623Y2363181D1*
Y2345071D1*
X4740587Y2326821D1*
X4734410Y2320785D1*
X4722337Y2314608D1*
X1839800Y2463408D2*
Y2518017D1*
X1833623Y2536267D1*
X1827587Y2542444D1*
X1815514Y2548481D1*
X1803300D1*
X1791227Y2542444D1*
X1785050Y2536267D1*
X1779013Y2518017D1*
Y2463408D1*
X1906623D1*
X1839800Y2505944D2*
X1906623Y2548481D1*
X1797264Y2660556D2*
X1785190Y2654520D1*
X1779154Y2636270D1*
Y2624196D1*
X1785190Y2605947D1*
X1803440Y2593733D1*
X1833764Y2587696D1*
X1864087D1*
X1888373Y2593733D1*
X1900587Y2605946D1*
X1906623Y2624196D1*
Y2630233D1*
X1900587Y2648342D1*
X1888373Y2660556D1*
X1870123Y2666593D1*
X1864087D1*
X1845837Y2660556D1*
X1833764Y2648343D1*
X1827727Y2630233D1*
Y2624196D1*
X1833764Y2605946D1*
X1845837Y2593733D1*
X1864087Y2587696D1*
X2829800Y2060319D2*
Y2114929D1*
X2823623Y2133179D1*
X2817587Y2139356D1*
X2805514Y2145392D1*
X2793300D1*
X2781227Y2139356D1*
X2775050Y2133179D1*
X2769013Y2114929D1*
Y2060319D1*
X2896623D1*
X2829800Y2102856D2*
X2896623Y2145392D1*
Y2208894D2*
X2769154Y2269681D1*
Y2184608D1*
X2209800Y2460390D2*
Y2514999D1*
X2203623Y2533249D1*
X2197587Y2539426D1*
X2185514Y2545463D1*
X2173300D1*
X2161227Y2539426D1*
X2155050Y2533249D1*
X2149013Y2514999D1*
Y2460390D1*
X2276623D1*
X2209800Y2502926D2*
X2276623Y2545462D1*
X2149154Y2615001D2*
X2155190Y2596892D1*
X2167264Y2590715D1*
X2179477D1*
X2191550Y2596892D1*
X2197727Y2608965D1*
X2203764Y2633251D1*
X2209800Y2651501D1*
X2222014Y2663574D1*
X2234087Y2669611D1*
X2252337D1*
X2264410Y2663574D1*
X2270587Y2657538D1*
X2276623Y2639288D1*
Y2615001D1*
X2270587Y2596892D1*
X2264410Y2590715D1*
X2252337Y2584678D1*
X2234087D1*
X2222014Y2590715D1*
X2209800Y2602928D1*
X2203764Y2621038D1*
X2197727Y2645324D1*
X2191550Y2657538D1*
X2179477Y2663574D1*
X2167264D1*
X2155190Y2657538D1*
X2149154Y2639288D1*
Y2615001D1*
X2489800Y2033338D2*
Y2087947D1*
X2483623Y2106197D1*
X2477587Y2112374D1*
X2465514Y2118411D1*
X2453300D1*
X2441227Y2112374D1*
X2435050Y2106197D1*
X2429013Y2087947D1*
Y2033338D1*
X2556623D1*
X2489800Y2075874D2*
X2556623Y2118411D1*
X2471550Y2236663D2*
X2489800Y2230486D1*
X2502014Y2218413D1*
X2508050Y2200163D1*
Y2194126D1*
X2502014Y2175876D1*
X2489800Y2163803D1*
X2471550Y2157626D1*
X2465514D1*
X2447264Y2163803D1*
X2435190Y2175876D1*
X2429154Y2194126D1*
Y2200163D1*
X2435190Y2218413D1*
X2447264Y2230486D1*
X2471550Y2236663D1*
X2502014D1*
X2532337Y2230486D1*
X2550587Y2218413D1*
X2556623Y2200163D1*
Y2188090D1*
X2550587Y2169840D1*
X2538373Y2163803D1*
X2529800Y3215480D2*
Y3270089D1*
X2523623Y3288339D1*
X2517587Y3294516D1*
X2505514Y3300553D1*
X2493300D1*
X2481227Y3294516D1*
X2475050Y3288339D1*
X2469013Y3270089D1*
Y3215480D1*
X2596623D1*
X2529800Y3258016D2*
X2596623Y3300553D1*
X2493440Y3339768D2*
X2487264Y3351982D1*
X2469154Y3370232D1*
X2596623D1*
X2499477Y3415624D2*
X2493440D1*
X2481227Y3421661D1*
X2475190Y3427698D1*
X2469154Y3439911D1*
Y3464198D1*
X2475190Y3476271D1*
X2481227Y3482307D1*
X2493440Y3488484D1*
X2505514D1*
X2517727Y3482307D1*
X2535837Y3470234D1*
X2596623Y3409447D1*
Y3494521D1*
X2099800Y3215480D2*
Y3270089D1*
X2093623Y3288339D1*
X2087587Y3294516D1*
X2075514Y3300553D1*
X2063300D1*
X2051227Y3294516D1*
X2045050Y3288339D1*
X2039013Y3270089D1*
Y3215480D1*
X2166623D1*
X2099800Y3258016D2*
X2166623Y3300553D1*
X2063440Y3339768D2*
X2057264Y3351982D1*
X2039154Y3370232D1*
X2166623D1*
X2039154Y3421661D2*
Y3488344D1*
X2087727Y3451984D1*
Y3470234D1*
X2093764Y3482307D1*
X2099800Y3488344D1*
X2118050Y3494521D1*
X2130123D1*
X2148373Y3488344D1*
X2160587Y3476271D1*
X2166623Y3458021D1*
Y3439771D1*
X2160587Y3421661D1*
X2154410Y3415624D1*
X2142337Y3409447D1*
X4509800Y3802462D2*
Y3857071D1*
X4503623Y3875321D1*
X4497587Y3881498D1*
X4485514Y3887535D1*
X4473300D1*
X4461227Y3881498D1*
X4455050Y3875321D1*
X4449013Y3857071D1*
Y3802462D1*
X4576623D1*
X4509800Y3844998D2*
X4576623Y3887534D1*
X4473440Y3926750D2*
X4467264Y3938964D1*
X4449154Y3957214D1*
X4576623Y3957213D1*
Y4057216D2*
X4449154D1*
X4534087Y3996429D1*
Y4087539D1*
X4919800Y3815480D2*
Y3870089D1*
X4913623Y3888339D1*
X4907587Y3894516D1*
X4895514Y3900553D1*
X4883300D1*
X4871227Y3894516D1*
X4865050Y3888339D1*
X4859013Y3870089D1*
Y3815480D1*
X4986623D1*
X4919800Y3858016D2*
X4986623Y3900553D1*
X4883440Y3939768D2*
X4877264Y3951982D1*
X4859154Y3970232D1*
X4986623D1*
X4859154Y4082307D2*
Y4021661D1*
X4913764Y4015624D1*
X4907727Y4021661D1*
X4901550Y4039911D1*
Y4058021D1*
X4907727Y4076271D1*
X4919800Y4088484D1*
X4938050Y4094521D1*
X4950123D1*
X4968373Y4088484D1*
X4980587Y4076271D1*
X4986623Y4058021D1*
Y4039911D1*
X4980587Y4021661D1*
X4974410Y4015624D1*
X4962337Y4009447D1*
X2359800Y1158568D2*
Y1213178D1*
X2353623Y1231428D1*
X2347587Y1237605D1*
X2335514Y1243641D1*
X2323300D1*
X2311227Y1237605D1*
X2305050Y1231428D1*
X2299013Y1213178D1*
Y1158568D1*
X2426623D1*
X2359800Y1201105D2*
X2426623Y1243641D1*
X2323440Y1282857D2*
X2317264Y1295070D1*
X2299154Y1313320D1*
X2426623D1*
X2317264Y1425396D2*
X2305190Y1419359D1*
X2299154Y1401109D1*
Y1389036D1*
X2305190Y1370786D1*
X2323440Y1358573D1*
X2353764Y1352536D1*
X2384087D1*
X2408373Y1358572D1*
X2420587Y1370786D1*
X2426623Y1389036D1*
Y1395072D1*
X2420587Y1413182D1*
X2408373Y1425396D1*
X2390123Y1431432D1*
X2384087D1*
X2365837Y1425396D1*
X2353764Y1413182D1*
X2347727Y1395072D1*
Y1389036D1*
X2353764Y1370786D1*
X2365837Y1358572D1*
X2384087Y1352536D1*
X1909800Y1165480D2*
Y1220089D1*
X1903623Y1238339D1*
X1897587Y1244516D1*
X1885514Y1250553D1*
X1873300D1*
X1861227Y1244516D1*
X1855050Y1238339D1*
X1849013Y1220089D1*
Y1165480D1*
X1976623D1*
X1909800Y1208016D2*
X1976623Y1250553D1*
X1873440Y1289768D2*
X1867264Y1301982D1*
X1849154Y1320232D1*
X1976623D1*
Y1383734D2*
X1849154Y1444521D1*
Y1359448D1*
X1813016Y4340987D2*
Y4213377D1*
X1770480Y4340987D2*
X1855553D1*
X1894768Y4274164D2*
X1949518D1*
X1967628Y4280200D1*
X1973805Y4286377D1*
X1979841Y4298450D1*
Y4316700D1*
X1973805Y4328773D1*
X1967628Y4334950D1*
X1949518Y4340987D1*
X1894768D1*
Y4213377D1*
X2019057Y4316560D2*
X2031270Y4322737D1*
X2049520Y4340846D1*
Y4213377D1*
X5705711Y4180987D2*
Y4053377D1*
X5663175Y4180987D2*
X5748248D1*
X5787463Y4114164D2*
X5842213D1*
X5860323Y4120200D1*
X5866500Y4126377D1*
X5872537Y4138450D1*
Y4156700D1*
X5866500Y4168773D1*
X5860323Y4174950D1*
X5842213Y4180987D1*
X5787463D1*
Y4053377D1*
X5917929Y4150523D2*
Y4156560D1*
X5923966Y4168773D1*
X5930002Y4174810D1*
X5942216Y4180846D1*
X5966502D1*
X5978575Y4174810D1*
X5984612Y4168773D1*
X5990789Y4156560D1*
Y4144487D1*
X5984612Y4132273D1*
X5972539Y4114164D1*
X5911752Y4053377D1*
X5996825D1*
X3985711Y1500987D2*
Y1373377D1*
X3943175Y1500987D2*
X4028248D1*
X4067463Y1434164D2*
X4122213D1*
X4140323Y1440200D1*
X4146500Y1446377D1*
X4152537Y1458450D1*
Y1476700D1*
X4146500Y1488773D1*
X4140323Y1494950D1*
X4122213Y1500987D1*
X4067463D1*
Y1373377D1*
X4203966Y1500846D2*
X4270648D1*
X4234289Y1452273D1*
X4252539D1*
X4264612Y1446237D1*
X4270648Y1440200D1*
X4276825Y1421950D1*
Y1409877D1*
X4270648Y1391627D1*
X4258575Y1379414D1*
X4240325Y1373377D1*
X4222075D1*
X4203966Y1379414D1*
X4197929Y1385590D1*
X4191752Y1397664D1*
X3612693Y1500987D2*
Y1373377D1*
X3570156Y1500987D2*
X3655230D1*
X3694445Y1434164D2*
X3749195D1*
X3767305Y1440200D1*
X3773482Y1446377D1*
X3779518Y1458450D1*
Y1476700D1*
X3773482Y1488773D1*
X3767305Y1494950D1*
X3749195Y1500987D1*
X3694445D1*
Y1373377D1*
X3879520D2*
Y1500846D1*
X3818734Y1415914D1*
X3909844D1*
X3742624Y3291447D2*
Y3200337D1*
X3748660Y3182087D1*
X3760874Y3170014D1*
X3779124Y3163837D1*
X3791197D1*
X3809447Y3170014D1*
X3821660Y3182087D1*
X3827697Y3200337D1*
Y3291447D1*
X3866913Y3267020D2*
X3879126Y3273197D1*
X3897376Y3291306D1*
Y3163837D1*
X3056929Y4223907D2*
Y4132797D1*
X3062966Y4114547D1*
X3075179Y4102474D1*
X3093429Y4096297D1*
X3105502D1*
X3123752Y4102474D1*
X3135966Y4114547D1*
X3142002Y4132797D1*
Y4223907D1*
X3187395Y4193443D2*
Y4199480D1*
X3193431Y4211693D1*
X3199468Y4217730D1*
X3211681Y4223766D1*
X3235968D1*
X3248041Y4217730D1*
X3254077Y4211693D1*
X3260254Y4199480D1*
Y4187407D1*
X3254077Y4175193D1*
X3242004Y4157084D1*
X3181218Y4096297D1*
X3266291D1*
M02*
