G04 DipTrace 3.3.0.1*
G04 Bottom.gbr*
%MOMM*%
G04 #@! TF.FileFunction,Copper,L2,Bot*
G04 #@! TF.Part,Single*
G04 #@! TA.AperFunction,Conductor*
%ADD13C,0.2*%
%ADD14C,0.15*%
G04 #@! TA.AperFunction,ComponentPad*
%ADD17O,2.0X1.5*%
%ADD18R,2.0X1.5*%
%ADD19R,2.0X1.7*%
%ADD20O,2.0X1.7*%
%ADD21R,1.7X2.0*%
%ADD22O,1.7X2.0*%
%ADD23C,1.5*%
G04 #@! TA.AperFunction,ViaPad*
%ADD27C,1.016*%
%FSLAX35Y35*%
G04*
G71*
G90*
G75*
G01*
G04 Bottom*
%LPD*%
X2570000Y3990000D2*
D13*
X2261120D1*
X2171120Y4080000D1*
X1910000D1*
X1753000Y3923000D1*
X1570000D1*
X3964000Y1720000D2*
D14*
Y1960000D1*
X4050000D1*
X4110000Y1900000D1*
Y1630000D1*
X4160000Y1580000D1*
X4860000D1*
X5330000D1*
X5360000Y1610000D1*
Y1720000D1*
X4110000Y1630000D2*
Y1240000D1*
X2859200Y2040000D2*
Y1220800D1*
X2970300Y1109700D1*
X3437510D1*
X3490000Y1162190D1*
Y1276020D1*
X3416020Y1350000D1*
X3170000D1*
X3080000Y1440000D1*
Y1800000D1*
X3240000Y1960000D1*
D13*
X3920000D1*
D14*
X3964000D1*
X4860000Y1840000D2*
Y1580000D1*
X3310000Y1226000D2*
D13*
X3060000D1*
X3000000Y1286000D1*
Y2138500D1*
X3149500Y2288000D1*
X2921700Y3260000D2*
X2778400Y3116700D1*
Y2757300D1*
X5830000Y3920000D2*
X6137000D1*
X6140000Y3923000D1*
X3149500Y2288000D2*
X3201500Y2340000D1*
X3930000D1*
X4020000Y2430000D1*
Y3200010D1*
X4010000D1*
X2778400Y2757300D2*
X3149500Y2386200D1*
Y2288000D1*
X3260000Y2460000D2*
D14*
Y3410000D1*
X3203810Y3466190D1*
X3112500D1*
X4380000Y2420000D2*
X5540773D1*
X5815773Y2145000D1*
X6140000D1*
X4390000Y2290000D2*
X4794190D1*
X5064190Y2020000D1*
X6110000D1*
X6140000Y1990000D1*
Y1891000D1*
X4390000Y2160000D2*
X4587500Y1962500D1*
X5505060D1*
X5830560Y1637000D1*
X6140000D1*
X2570000Y3260000D2*
D13*
Y3736000D1*
X3710000Y1720000D2*
X3740000D1*
Y1240000D1*
X3480000Y3860000D2*
Y4060000D1*
X3560000Y4140000D1*
X4100000D1*
X4140000Y4100000D1*
Y4000000D1*
X2050000Y1930000D2*
Y1940000D1*
X1812373D1*
X1763373Y1891000D1*
X1570000D1*
D27*
X4380000Y2420000D3*
X4390000Y2290000D3*
Y2160000D3*
X3260000Y2460000D3*
X4860000Y1840000D3*
X2859200Y2040000D3*
X5360000Y1720000D3*
X4010000Y3200010D3*
X3149500Y2288000D3*
X2778400Y2757300D3*
X2921700Y3260000D3*
X3112500Y3466190D3*
X2570000Y3260000D3*
X3480000Y3860000D3*
D17*
X3310000Y1480000D3*
D18*
Y1226000D3*
D17*
X2570000Y3990000D3*
D18*
Y3736000D3*
D17*
X4140000Y4000000D3*
D18*
Y3746000D3*
D17*
X2050000Y1930000D3*
D18*
Y1676000D3*
D19*
X1570000Y3923000D3*
D20*
Y3669000D3*
Y3415000D3*
Y3161000D3*
Y2907000D3*
Y2653000D3*
Y2399000D3*
Y2145000D3*
Y1891000D3*
Y1637000D3*
D19*
X6140000Y3923000D3*
D20*
Y3669000D3*
Y3415000D3*
Y3161000D3*
Y2907000D3*
Y2653000D3*
Y2399000D3*
Y2145000D3*
Y1891000D3*
Y1637000D3*
D21*
X3710000Y1720000D3*
D22*
X3964000D3*
D23*
X1910000Y4080000D3*
X5830000Y3920000D3*
X4110000Y1240000D3*
X3740000D3*
M02*
