G04 DipTrace 3.3.0.1*
G04 TopMask.gbr*
%MOMM*%
G04 #@! TF.FileFunction,Soldermask,Top*
G04 #@! TF.Part,Single*
%ADD34R,1.3X0.8*%
%ADD36R,2.2X0.8*%
%ADD38C,1.7*%
%ADD40O,1.9X2.2*%
%ADD42R,1.9X2.2*%
%ADD44O,2.2X1.9*%
%ADD46R,2.2X1.9*%
%ADD48R,2.2X1.7*%
%ADD50O,2.2X1.7*%
%ADD52R,1.5X1.7*%
%ADD54R,1.7X1.5*%
%FSLAX35Y35*%
G04*
G71*
G90*
G75*
G01*
G04 TopMask*
%LPD*%
D54*
X1900000Y3830000D3*
Y3640000D3*
D52*
X3260000Y2790000D3*
X3070000D3*
X4525000Y3095000D3*
X4715000D3*
D54*
X3720000Y3940000D3*
Y3750000D3*
D50*
X3310000Y1480000D3*
D48*
Y1226000D3*
D50*
X2570000Y3990000D3*
D48*
Y3736000D3*
D50*
X4140000Y4000000D3*
D48*
Y3746000D3*
D50*
X2050000Y1930000D3*
D48*
Y1676000D3*
D46*
X1570000Y3923000D3*
D44*
Y3669000D3*
Y3415000D3*
Y3161000D3*
Y2907000D3*
Y2653000D3*
Y2399000D3*
Y2145000D3*
Y1891000D3*
Y1637000D3*
D46*
X6140000Y3923000D3*
D44*
Y3669000D3*
Y3415000D3*
Y3161000D3*
Y2907000D3*
Y2653000D3*
Y2399000D3*
Y2145000D3*
Y1891000D3*
Y1637000D3*
D42*
X3710000Y1720000D3*
D40*
X3964000D3*
D54*
X5190000Y2390000D3*
Y2200000D3*
Y1910000D3*
Y1720000D3*
X5880000Y2380000D3*
Y2190000D3*
X5520000Y2390000D3*
Y2200000D3*
X4860000Y2390000D3*
Y2200000D3*
X2020000Y2660000D3*
Y2470000D3*
X3000000Y2230000D3*
Y2040000D3*
X2390000Y2660000D3*
Y2470000D3*
X2670000Y2230000D3*
Y2040000D3*
X2730000Y3450000D3*
Y3260000D3*
X2300000D3*
Y3450000D3*
X4710000Y3850000D3*
Y4040000D3*
X5120000Y4050000D3*
Y3860000D3*
X2560000Y1200000D3*
Y1390000D3*
X2110000Y1400000D3*
Y1210000D3*
D38*
X1910000Y4080000D3*
X5830000Y3920000D3*
X4110000Y1240000D3*
X3740000D3*
D36*
X3550000Y3050000D3*
Y2923000D3*
Y2796000D3*
Y2669000D3*
Y2542000D3*
Y2415000D3*
Y2288000D3*
Y2161000D3*
X4090000D3*
Y2288000D3*
Y2415000D3*
Y2542000D3*
Y2669000D3*
Y2796000D3*
Y2923000D3*
Y3050000D3*
D34*
X3030000Y3950000D3*
Y3855000D3*
Y3760000D3*
X3300000D3*
Y3950000D3*
M02*
